<svg width="513" height="355" viewBox="0 0 513 355" fill="none" xmlns="http://www.w3.org/2000/svg">
<rect width="513" height="355" fill="white"/>
<path d="M285 60C285 44.536 272.464 32 257 32C241.536 32 229 44.536 229 60C229 75.464 241.536 88 257 88C272.464 88 285 75.464 285 60Z" fill="#8B2F32"/>
<path d="M273.573 47.3451L273.213 47.0181C272.78 46.6071 272.204 46.3807 271.606 46.3868C271.009 46.393 270.438 46.6312 270.013 47.0511C269.327 47.7381 268.444 48.5871 267.496 49.5031C266.417 50.5491 265.24 51.6931 264.064 52.8701L263.802 53.0991C261.285 55.5511 259.225 57.5451 257.754 59.0161C257.638 59.1223 257.486 59.1805 257.329 59.1791C257.248 59.1809 257.167 59.1638 257.093 59.1291C257.019 59.0944 256.955 59.043 256.904 58.9791C256.643 58.7171 256.479 58.4891 256.283 58.2931C256.087 58.0971 255.923 57.8681 255.662 57.6061C255.236 57.1525 254.65 56.8827 254.028 56.8541C253.727 56.8368 253.426 56.8831 253.144 56.9901C252.863 57.0971 252.607 57.2624 252.393 57.4751L252.36 57.5081C252.134 57.7163 251.953 57.9691 251.83 58.2505C251.706 58.5318 251.642 58.8357 251.641 59.1431C251.639 59.7617 251.873 60.3578 252.295 60.8101C253.047 61.5951 253.635 62.1831 254.224 62.7711C254.78 63.3591 255.336 63.9151 256.055 64.6341C256.488 65.0699 257.076 65.3168 257.69 65.3211H257.723C258.02 65.3246 258.315 65.2685 258.589 65.1562C258.864 65.0438 259.114 64.8775 259.323 64.6671L273.576 50.6101C273.796 50.3921 273.97 50.1323 274.088 49.846C274.206 49.5597 274.265 49.2527 274.263 48.9431C274.275 48.6421 274.219 48.3423 274.099 48.0658C273.98 47.7893 273.8 47.543 273.573 47.3451V47.3451Z" fill="white"/>
<path d="M268.701 66.8941C268.386 66.5915 268.011 66.3592 267.6 66.2127C267.188 66.0661 266.75 66.0087 266.315 66.0441C265.431 66.1816 264.603 66.5668 263.928 67.1551C262.741 68.2204 261.312 68.981 259.765 69.3712C258.218 69.7615 256.599 69.7696 255.048 69.3951C253.497 69.0205 252.061 68.2744 250.863 67.2212C249.664 66.1679 248.74 64.839 248.17 63.349C247.599 61.859 247.4 60.2527 247.588 58.6685C247.777 57.0842 248.348 55.5696 249.252 54.2551C250.156 52.9406 251.366 51.8657 252.778 51.123C254.19 50.3804 255.762 49.9922 257.357 49.9921C258.539 49.999 259.711 50.2091 260.822 50.6131C261.166 50.7089 261.516 50.7854 261.868 50.8421C262.376 50.9269 262.897 50.9069 263.397 50.7832C263.897 50.6596 264.367 50.4349 264.777 50.1231C265.361 49.6293 265.725 48.9241 265.79 48.1621C265.816 47.4196 265.587 46.6906 265.142 46.096C264.696 45.5014 264.061 45.0769 263.341 44.8931L263.21 44.8281C261.343 44.1025 259.361 43.7151 257.358 43.6841C253.085 43.687 248.987 45.3858 245.965 48.4075C242.943 51.4292 241.244 55.5267 241.241 59.8001C241.263 64.1862 243.025 68.3843 246.141 71.4711C249.03 74.3311 252.929 75.9399 256.994 75.9501H257.354C264.154 75.7871 267.782 72.2561 268.273 71.7001C268.634 71.4123 268.929 71.0504 269.138 70.6387C269.346 70.227 269.464 69.7753 269.483 69.3141V69.2491C269.533 68.8232 269.489 68.3916 269.354 67.9847C269.219 67.5778 268.996 67.2055 268.701 66.8941V66.8941Z" fill="white"/>
<g filter="url(#filter0_ddd_1108_721)">
<path fill-rule="evenodd" clip-rule="evenodd" d="M293 59C293 78.8823 276.882 95 257 95C237.118 95 221 78.8823 221 59C221 52.4428 222.753 46.2951 225.816 41H69V99H444V41H288.184C291.247 46.2951 293 52.4428 293 59Z" fill="#E0E0E0"/>
</g>
<path d="M412.713 69.843C413.587 69.8428 414.442 69.5834 415.169 69.0975C415.896 68.6116 416.462 67.9212 416.797 67.1134C417.131 66.3056 417.219 65.4167 417.048 64.5592C416.878 63.7017 416.456 62.9141 415.838 62.2959C415.22 61.6776 414.432 61.2566 413.575 61.086C412.717 60.9154 411.829 61.0028 411.021 61.3373C410.213 61.6718 409.522 62.2383 409.037 62.9652C408.551 63.6921 408.291 64.5467 408.291 65.421C408.294 66.5928 408.761 67.7157 409.59 68.5443C410.418 69.3729 411.541 69.8398 412.713 69.843V69.843ZM412.713 72.054C409.728 72.053 403.87 73.49 403.87 76.475V78.686H421.555V76.475C421.555 73.49 415.697 72.053 412.713 72.053V72.054Z" fill="#757679"/>
<path d="M105.423 70.442V64.212H109.577V70.442H114.769V62.142H117.884L107.5 52.792L97.1162 62.142H100.231V70.442H105.423Z" fill="#8B2F32"/>
<path d="M94.5788 83.999V75.491H93.3788V83.999H94.5788ZM97.7501 80.663C97.7501 79.787 98.2061 79.079 99.0941 79.079C100.102 79.079 100.438 79.727 100.438 80.531V83.999H101.566V80.339C101.566 79.055 100.882 78.059 99.5021 78.059C98.8301 78.059 98.1461 78.335 97.7261 79.055V78.227H96.6221V83.999H97.7501V80.663ZM104.476 83.999V78.227H103.36V83.999H104.476ZM103.108 76.043C103.108 76.487 103.468 76.847 103.912 76.847C104.368 76.847 104.728 76.487 104.728 76.043C104.728 75.587 104.368 75.227 103.912 75.227C103.468 75.227 103.108 75.587 103.108 76.043ZM108.82 79.091C109.804 79.091 110.224 79.751 110.368 80.315L111.388 79.883C111.148 79.007 110.356 78.047 108.82 78.047C107.176 78.047 105.916 79.307 105.916 81.107C105.916 82.859 107.152 84.179 108.832 84.179C110.332 84.179 111.16 83.207 111.436 82.379L110.44 81.947C110.308 82.403 109.912 83.135 108.832 83.135C107.896 83.135 107.068 82.427 107.068 81.107C107.068 79.763 107.908 79.091 108.82 79.091ZM113.875 83.999V78.227H112.759V83.999H113.875ZM112.507 76.043C112.507 76.487 112.867 76.847 113.311 76.847C113.767 76.847 114.127 76.487 114.127 76.043C114.127 75.587 113.767 75.227 113.311 75.227C112.867 75.227 112.507 75.587 112.507 76.043ZM118.266 83.171C117.306 83.171 116.466 82.451 116.466 81.107C116.466 79.775 117.306 79.055 118.266 79.055C119.226 79.055 120.066 79.775 120.066 81.107C120.066 82.451 119.226 83.171 118.266 83.171ZM118.266 78.047C116.538 78.047 115.314 79.355 115.314 81.107C115.314 82.871 116.538 84.179 118.266 84.179C119.994 84.179 121.218 82.871 121.218 81.107C121.218 79.355 119.994 78.047 118.266 78.047Z" fill="#8B2F32"/>
<path d="M186.309 64.1271H183.266C183.233 64.0611 183.239 63.9821 183.184 63.9271L179.27 60.0161V60.0081C179.148 59.8854 178.981 59.8164 178.807 59.8164C178.634 59.8164 178.467 59.8854 178.344 60.0081V60.0161L174.425 63.9271C174.37 63.9821 174.373 64.0611 174.343 64.1271H171.298C170.358 64.1276 169.456 64.5015 168.791 65.1666C168.126 65.8317 167.752 66.7335 167.751 67.6741V75.8381C167.751 76.7792 168.125 77.6818 168.79 78.3476C169.455 79.0133 170.357 79.3876 171.298 79.3881H186.309C186.776 79.3884 187.237 79.2967 187.668 79.1184C188.099 78.9401 188.49 78.6786 188.82 78.3489C189.15 78.0191 189.411 77.6277 189.589 77.1969C189.767 76.766 189.859 76.3043 189.858 75.8381V67.6741C189.858 67.2081 189.767 66.7467 189.588 66.3163C189.41 65.8858 189.148 65.4947 188.819 65.1653C188.489 64.8359 188.098 64.5747 187.667 64.3965C187.237 64.2184 186.775 64.1268 186.309 64.1271ZM178.809 61.3921L181.544 64.1271H176.069L178.809 61.3921ZM181.525 74.9261H175.976C175.813 74.9133 175.66 74.8392 175.549 74.7187C175.437 74.5982 175.375 74.4402 175.375 74.2761C175.375 74.112 175.437 73.954 175.549 73.8335C175.66 73.713 175.813 73.6389 175.976 73.6261H181.521C181.685 73.6389 181.838 73.713 181.949 73.8335C182.061 73.954 182.122 74.112 182.122 74.2761C182.122 74.4402 182.061 74.5982 181.949 74.7187C181.838 74.8392 181.685 74.9133 181.521 74.9261H181.525ZM184.581 72.0451H172.981C172.893 72.05 172.805 72.0368 172.721 72.0064C172.638 71.9759 172.562 71.9288 172.498 71.868C172.434 71.8072 172.382 71.7338 172.347 71.6525C172.312 71.5712 172.294 71.4836 172.294 71.3951C172.294 71.3066 172.312 71.219 172.347 71.1377C172.382 71.0563 172.434 70.983 172.498 70.9222C172.562 70.8613 172.638 70.8143 172.721 70.7838C172.805 70.7534 172.893 70.7402 172.981 70.7451H184.581C184.748 70.7543 184.904 70.8268 185.018 70.9477C185.133 71.0686 185.196 71.2287 185.196 71.3951C185.196 71.5615 185.133 71.7216 185.018 71.8425C184.904 71.9634 184.748 72.0359 184.581 72.0451ZM184.581 69.0381H172.981C172.893 69.043 172.805 69.0298 172.721 68.9994C172.638 68.9689 172.562 68.9218 172.498 68.861C172.434 68.8002 172.382 68.7268 172.347 68.6455C172.312 68.5642 172.294 68.4766 172.294 68.3881C172.294 68.2996 172.312 68.212 172.347 68.1307C172.382 68.0493 172.434 67.976 172.498 67.9152C172.562 67.8543 172.638 67.8073 172.721 67.7768C172.805 67.7464 172.893 67.7332 172.981 67.7381H184.581C184.748 67.7473 184.904 67.8198 185.018 67.9407C185.133 68.0616 185.196 68.2217 185.196 68.3881C185.196 68.5545 185.133 68.7146 185.018 68.8355C184.904 68.9564 184.748 69.0289 184.581 69.0381Z" fill="#757679"/>
<g clip-path="url(#clip0_1108_721)">
<path d="M344.16 78.5391C344.16 71.0793 338.02 64.9396 330.561 64.9396V61.5391C339.885 61.5391 347.561 69.2146 347.561 78.5391H344.16ZM332.89 73.8742C333.509 73.8753 334.102 74.1217 334.54 74.5594C334.978 74.9971 335.224 75.5905 335.225 76.2095C335.225 77.4936 334.171 78.5391 332.885 78.5391C331.601 78.5391 330.561 77.4957 330.561 76.2095C330.561 74.9234 331.607 73.8742 332.89 73.8742V73.8742ZM341.83 78.5391H338.524C338.524 74.1701 334.93 70.573 330.561 70.573V67.2691C336.742 67.2691 341.83 72.3574 341.83 78.5391Z" fill="#757679"/>
</g>
<path d="M285 155C285 139.536 272.464 127 257 127C241.536 127 229 139.536 229 155C229 170.464 241.536 183 257 183C272.464 183 285 170.464 285 155Z" fill="#8B2F32"/>
<path d="M272.82 142.528L272.46 142.201C272.027 141.79 271.451 141.564 270.854 141.57C270.256 141.576 269.685 141.814 269.26 142.234C268.574 142.921 267.691 143.77 266.743 144.686C265.664 145.732 264.487 146.876 263.311 148.053L263.049 148.282C260.532 150.734 258.472 152.728 257.001 154.199C256.885 154.305 256.733 154.363 256.576 154.362C256.495 154.364 256.414 154.347 256.34 154.312C256.266 154.277 256.202 154.226 256.151 154.162C255.89 153.9 255.726 153.672 255.53 153.476C255.334 153.28 255.17 153.051 254.909 152.789C254.483 152.335 253.897 152.066 253.275 152.037C252.974 152.02 252.673 152.066 252.391 152.173C252.11 152.28 251.854 152.445 251.64 152.658L251.607 152.691C251.381 152.899 251.2 153.152 251.077 153.433C250.953 153.715 250.889 154.019 250.888 154.326C250.886 154.945 251.12 155.541 251.542 155.993C252.294 156.778 252.882 157.366 253.471 157.954C254.027 158.542 254.583 159.098 255.302 159.817C255.735 160.253 256.323 160.5 256.937 160.504H256.97C257.267 160.507 257.562 160.451 257.836 160.339C258.111 160.227 258.361 160.06 258.57 159.85L272.823 145.793C273.043 145.575 273.217 145.315 273.335 145.029C273.453 144.743 273.513 144.436 273.51 144.126C273.522 143.825 273.466 143.525 273.347 143.249C273.227 142.972 273.047 142.726 272.82 142.528V142.528Z" fill="white"/>
<path d="M267.948 162.077C267.633 161.774 267.258 161.542 266.847 161.396C266.435 161.249 265.998 161.192 265.562 161.227C264.678 161.364 263.85 161.75 263.175 162.338C261.988 163.403 260.559 164.164 259.012 164.554C257.465 164.944 255.846 164.953 254.295 164.578C252.745 164.203 251.308 163.457 250.11 162.404C248.911 161.351 247.987 160.022 247.417 158.532C246.846 157.042 246.647 155.436 246.835 153.851C247.024 152.267 247.595 150.752 248.499 149.438C249.403 148.123 250.613 147.049 252.025 146.306C253.437 145.563 255.009 145.175 256.604 145.175C257.786 145.182 258.958 145.392 260.069 145.796C260.413 145.892 260.763 145.968 261.115 146.025C261.624 146.11 262.144 146.09 262.644 145.966C263.144 145.842 263.614 145.618 264.024 145.306C264.608 144.812 264.973 144.107 265.037 143.345C265.063 142.602 264.834 141.873 264.389 141.279C263.943 140.684 263.308 140.26 262.588 140.076L262.457 140.011C260.59 139.285 258.608 138.898 256.605 138.867C252.332 138.87 248.234 140.569 245.212 143.59C242.191 146.612 240.491 150.71 240.488 154.983C240.51 159.369 242.272 163.567 245.388 166.654C248.278 169.514 252.176 171.123 256.241 171.133H256.601C263.401 170.97 267.029 167.439 267.52 166.883C267.881 166.595 268.176 166.233 268.385 165.822C268.594 165.41 268.711 164.958 268.73 164.497V164.432C268.78 164.006 268.736 163.574 268.601 163.168C268.466 162.761 268.243 162.388 267.948 162.077V162.077Z" fill="white"/>
<g filter="url(#filter1_ddd_1108_721)">
<path fill-rule="evenodd" clip-rule="evenodd" d="M293 155C293 174.882 276.882 191 257 191C237.118 191 221 174.882 221 155C221 148.026 222.983 141.515 226.416 136H69V327.137H444V136H287.584C291.017 141.515 293 148.026 293 155Z" fill="#E0E0E0"/>
</g>
<path d="M238.882 291.137H233.932V283.338H238.871V284.977H235.67V286.462H238.574V287.991H235.67V289.487H238.882V291.137ZM239.774 289.586L241.193 289.333C241.207 289.538 241.284 289.714 241.424 289.861C241.57 290 241.779 290.07 242.051 290.07C242.256 290.07 242.414 290.026 242.524 289.938C242.634 289.842 242.689 289.729 242.689 289.597C242.689 289.377 242.509 289.226 242.15 289.146L241.523 289.003C240.965 288.885 240.555 288.68 240.291 288.387C240.027 288.086 239.895 287.73 239.895 287.32C239.895 286.814 240.093 286.385 240.489 286.033C240.892 285.681 241.394 285.505 241.996 285.505C242.707 285.505 243.239 285.677 243.591 286.022C243.95 286.359 244.148 286.729 244.185 287.133L242.799 287.386C242.777 287.188 242.7 287.026 242.568 286.902C242.443 286.777 242.26 286.715 242.018 286.715C241.856 286.715 241.717 286.759 241.6 286.847C241.482 286.935 241.424 287.048 241.424 287.188C241.424 287.408 241.567 287.543 241.853 287.595L242.579 287.738C243.129 287.848 243.547 288.057 243.833 288.365C244.119 288.673 244.262 289.036 244.262 289.454C244.262 289.96 244.071 290.396 243.69 290.763C243.308 291.122 242.773 291.302 242.084 291.302C241.68 291.302 241.321 291.243 241.006 291.126C240.698 291.008 240.459 290.858 240.291 290.675C240.129 290.484 240.005 290.297 239.917 290.114C239.836 289.93 239.788 289.754 239.774 289.586ZM247.351 284.075V285.67H248.418V287.133H247.351V289.179C247.351 289.56 247.552 289.751 247.956 289.751C248.088 289.751 248.234 289.732 248.396 289.696V291.082C248.19 291.184 247.901 291.236 247.527 291.236C246.962 291.236 246.515 291.078 246.185 290.763C245.862 290.447 245.701 290.018 245.701 289.476V287.133H244.733V285.67H245.008C245.286 285.67 245.495 285.589 245.635 285.428C245.781 285.259 245.855 285.043 245.855 284.779V284.075H247.351ZM253.177 291.137C253.147 291.005 253.133 290.821 253.133 290.587C253.001 290.807 252.799 290.975 252.528 291.093C252.256 291.203 251.97 291.258 251.67 291.258C251.024 291.258 250.515 291.056 250.141 290.653C249.774 290.242 249.591 289.732 249.591 289.124V285.67H251.263V288.772C251.263 289.05 251.336 289.278 251.483 289.454C251.637 289.63 251.857 289.718 252.143 289.718C252.421 289.718 252.641 289.633 252.803 289.465C252.971 289.289 253.056 289.061 253.056 288.783V285.67H254.728V290.158C254.728 290.517 254.746 290.843 254.783 291.137H253.177ZM261.567 283.173V290.158C261.567 290.488 261.581 290.814 261.611 291.137H260.005C259.975 290.961 259.961 290.785 259.961 290.609C259.829 290.799 259.631 290.957 259.367 291.082C259.11 291.199 258.82 291.258 258.498 291.258C257.72 291.258 257.075 290.99 256.562 290.455C256.048 289.912 255.792 289.223 255.792 288.387C255.792 287.565 256.041 286.887 256.54 286.352C257.038 285.809 257.673 285.538 258.443 285.538C259.191 285.538 259.682 285.725 259.917 286.099V283.173H261.567ZM257.827 287.397C257.592 287.631 257.475 287.965 257.475 288.398C257.475 288.83 257.592 289.168 257.827 289.41C258.069 289.644 258.362 289.762 258.707 289.762C259.051 289.762 259.341 289.644 259.576 289.41C259.818 289.168 259.939 288.83 259.939 288.398C259.939 287.965 259.818 287.631 259.576 287.397C259.341 287.162 259.051 287.045 258.707 287.045C258.362 287.045 258.069 287.162 257.827 287.397ZM264.745 291.137H263.073V285.67H264.745V291.137ZM263.216 284.691C263.026 284.5 262.93 284.269 262.93 283.998C262.93 283.726 263.026 283.495 263.216 283.305C263.407 283.114 263.634 283.019 263.898 283.019C264.17 283.019 264.401 283.114 264.591 283.305C264.789 283.495 264.888 283.726 264.888 283.998C264.888 284.269 264.789 284.5 264.591 284.691C264.401 284.881 264.17 284.977 263.898 284.977C263.634 284.977 263.407 284.881 263.216 284.691ZM265.88 289.63C265.88 289.168 266.03 288.797 266.331 288.519C266.632 288.233 267.02 288.053 267.497 287.98L268.784 287.782C269.048 287.745 269.18 287.62 269.18 287.408C269.18 287.239 269.107 287.1 268.96 286.99C268.821 286.872 268.626 286.814 268.377 286.814C268.098 286.814 267.875 286.894 267.706 287.056C267.545 287.21 267.457 287.397 267.442 287.617L265.99 287.32C266.027 286.865 266.25 286.451 266.661 286.077C267.079 285.695 267.655 285.505 268.388 285.505C269.217 285.505 269.825 285.703 270.214 286.099C270.61 286.495 270.808 287.001 270.808 287.617V290.29C270.808 290.634 270.83 290.917 270.874 291.137H269.367C269.33 290.99 269.312 290.785 269.312 290.521C268.997 291.034 268.483 291.291 267.772 291.291C267.193 291.291 266.731 291.129 266.386 290.807C266.049 290.477 265.88 290.084 265.88 289.63ZM268.179 290.081C268.465 290.081 268.703 289.996 268.894 289.828C269.085 289.659 269.18 289.38 269.18 288.992V288.75L268.146 288.915C267.735 288.981 267.53 289.182 267.53 289.52C267.53 289.674 267.581 289.806 267.684 289.916C267.794 290.026 267.959 290.081 268.179 290.081ZM275.691 285.67V287.32C275.537 287.283 275.361 287.265 275.163 287.265C274.789 287.265 274.481 287.386 274.239 287.628C274.004 287.87 273.887 288.244 273.887 288.75V291.137H272.215V285.67H273.832V286.407C273.964 286.128 274.166 285.926 274.437 285.802C274.708 285.677 274.98 285.615 275.251 285.615C275.42 285.615 275.566 285.633 275.691 285.67Z" fill="#757679"/>
<path d="M147.06 284.999V283.338H140.515V284.999H142.913V291.137H144.651V284.999H147.06ZM148.227 287.749C148.26 287.342 148.612 286.825 149.316 286.825C150.108 286.825 150.394 287.331 150.416 287.749H148.227ZM150.537 289.168C150.383 289.597 150.042 289.883 149.437 289.883C148.788 289.883 148.227 289.443 148.194 288.827H152C152.011 288.794 152.033 288.541 152.033 288.31C152.033 286.55 150.988 285.505 149.294 285.505C147.875 285.505 146.566 286.627 146.566 288.387C146.566 290.224 147.908 291.302 149.415 291.302C150.801 291.302 151.67 290.51 151.934 289.564L150.537 289.168ZM152.656 289.586C152.7 290.191 153.25 291.302 154.966 291.302C156.429 291.302 157.144 290.389 157.144 289.454C157.144 288.651 156.594 287.969 155.461 287.738L154.735 287.595C154.493 287.551 154.306 287.419 154.306 287.188C154.306 286.902 154.581 286.715 154.9 286.715C155.406 286.715 155.637 287.023 155.681 287.386L157.067 287.133C157.012 286.495 156.462 285.505 154.878 285.505C153.657 285.505 152.777 286.319 152.777 287.32C152.777 288.09 153.239 288.75 154.405 289.003L155.032 289.146C155.439 289.234 155.571 289.399 155.571 289.597C155.571 289.839 155.362 290.07 154.933 290.07C154.361 290.07 154.097 289.707 154.075 289.333L152.656 289.586ZM160.233 284.075H158.737V284.779C158.737 285.285 158.462 285.67 157.89 285.67H157.615V287.133H158.583V289.476C158.583 290.565 159.276 291.236 160.409 291.236C160.937 291.236 161.212 291.115 161.278 291.082V289.696C161.179 289.718 161.014 289.751 160.838 289.751C160.475 289.751 160.233 289.63 160.233 289.179V287.133H161.3V285.67H160.233V284.075Z" fill="#757679"/>
<path d="M327.923 291.302C326.779 291.302 325.818 290.928 325.041 290.18C324.264 289.424 323.875 288.449 323.875 287.254C323.875 286.066 324.267 285.09 325.052 284.328C325.837 283.558 326.786 283.173 327.901 283.173C328.458 283.173 328.961 283.257 329.408 283.426C329.863 283.587 330.229 283.803 330.508 284.075C330.787 284.346 331.01 284.625 331.179 284.911C331.348 285.197 331.465 285.494 331.531 285.802L329.892 286.319C329.855 286.165 329.797 286.014 329.716 285.868C329.635 285.714 329.522 285.56 329.375 285.406C329.228 285.244 329.027 285.116 328.77 285.021C328.513 284.918 328.224 284.867 327.901 284.867C327.314 284.867 326.797 285.076 326.35 285.494C325.903 285.904 325.679 286.491 325.679 287.254C325.679 287.958 325.899 288.519 326.339 288.937C326.779 289.355 327.307 289.564 327.923 289.564C328.524 289.564 328.99 289.413 329.32 289.113C329.65 288.812 329.866 288.475 329.969 288.101L331.63 288.574C331.557 288.874 331.436 289.171 331.267 289.465C331.106 289.758 330.882 290.048 330.596 290.334C330.317 290.62 329.943 290.854 329.474 291.038C329.012 291.214 328.495 291.302 327.923 291.302ZM335.049 289.762C335.394 289.762 335.684 289.644 335.918 289.41C336.16 289.175 336.281 288.838 336.281 288.398C336.281 287.958 336.16 287.624 335.918 287.397C335.684 287.162 335.394 287.045 335.049 287.045C334.712 287.045 334.422 287.162 334.18 287.397C333.938 287.631 333.817 287.965 333.817 288.398C333.817 288.83 333.938 289.168 334.18 289.41C334.422 289.644 334.712 289.762 335.049 289.762ZM335.049 285.505C335.878 285.505 336.567 285.776 337.117 286.319C337.675 286.861 337.953 287.554 337.953 288.398C337.953 289.241 337.675 289.938 337.117 290.488C336.567 291.03 335.878 291.302 335.049 291.302C334.228 291.302 333.539 291.027 332.981 290.477C332.424 289.927 332.145 289.234 332.145 288.398C332.145 287.562 332.424 286.872 332.981 286.33C333.539 285.78 334.228 285.505 335.049 285.505ZM340.701 288.002V291.137H339.029V285.67H340.646V286.297C340.786 286.055 340.998 285.868 341.284 285.736C341.578 285.596 341.875 285.527 342.175 285.527C342.828 285.527 343.323 285.732 343.66 286.143C343.998 286.546 344.166 287.067 344.166 287.705V291.137H342.494V287.991C342.494 287.705 342.417 287.477 342.263 287.309C342.117 287.133 341.897 287.045 341.603 287.045C341.332 287.045 341.112 287.136 340.943 287.32C340.782 287.496 340.701 287.723 340.701 288.002ZM345.12 289.586L346.539 289.333C346.554 289.538 346.631 289.714 346.77 289.861C346.917 290 347.126 290.07 347.397 290.07C347.603 290.07 347.76 290.026 347.87 289.938C347.98 289.842 348.035 289.729 348.035 289.597C348.035 289.377 347.856 289.226 347.496 289.146L346.869 289.003C346.312 288.885 345.901 288.68 345.637 288.387C345.373 288.086 345.241 287.73 345.241 287.32C345.241 286.814 345.439 286.385 345.835 286.033C346.239 285.681 346.741 285.505 347.342 285.505C348.054 285.505 348.585 285.677 348.937 286.022C349.297 286.359 349.495 286.729 349.531 287.133L348.145 287.386C348.123 287.188 348.046 287.026 347.914 286.902C347.79 286.777 347.606 286.715 347.364 286.715C347.203 286.715 347.064 286.759 346.946 286.847C346.829 286.935 346.77 287.048 346.77 287.188C346.77 287.408 346.913 287.543 347.199 287.595L347.925 287.738C348.475 287.848 348.893 288.057 349.179 288.365C349.465 288.673 349.608 289.036 349.608 289.454C349.608 289.96 349.418 290.396 349.036 290.763C348.655 291.122 348.12 291.302 347.43 291.302C347.027 291.302 346.668 291.243 346.352 291.126C346.044 291.008 345.806 290.858 345.637 290.675C345.476 290.484 345.351 290.297 345.263 290.114C345.183 289.93 345.135 289.754 345.12 289.586ZM352.697 284.075V285.67H353.764V287.133H352.697V289.179C352.697 289.56 352.899 289.751 353.302 289.751C353.434 289.751 353.581 289.732 353.742 289.696V291.082C353.537 291.184 353.247 291.236 352.873 291.236C352.309 291.236 351.861 291.078 351.531 290.763C351.209 290.447 351.047 290.018 351.047 289.476V287.133H350.079V285.67H350.354C350.633 285.67 350.842 285.589 350.981 285.428C351.128 285.259 351.201 285.043 351.201 284.779V284.075H352.697ZM356.621 291.137H354.949V285.67H356.621V291.137ZM355.092 284.691C354.902 284.5 354.806 284.269 354.806 283.998C354.806 283.726 354.902 283.495 355.092 283.305C355.283 283.114 355.51 283.019 355.774 283.019C356.046 283.019 356.277 283.114 356.467 283.305C356.665 283.495 356.764 283.726 356.764 283.998C356.764 284.269 356.665 284.5 356.467 284.691C356.277 284.881 356.046 284.977 355.774 284.977C355.51 284.977 355.283 284.881 355.092 284.691ZM360.088 284.075V285.67H361.155V287.133H360.088V289.179C360.088 289.56 360.29 289.751 360.693 289.751C360.825 289.751 360.972 289.732 361.133 289.696V291.082C360.928 291.184 360.638 291.236 360.264 291.236C359.699 291.236 359.252 291.078 358.922 290.763C358.599 290.447 358.438 290.018 358.438 289.476V287.133H357.47V285.67H357.745C358.024 285.67 358.233 285.589 358.372 285.428C358.519 285.259 358.592 285.043 358.592 284.779V284.075H360.088ZM365.914 291.137C365.885 291.005 365.87 290.821 365.87 290.587C365.738 290.807 365.536 290.975 365.265 291.093C364.994 291.203 364.708 291.258 364.407 291.258C363.762 291.258 363.252 291.056 362.878 290.653C362.511 290.242 362.328 289.732 362.328 289.124V285.67H364V288.772C364 289.05 364.073 289.278 364.22 289.454C364.374 289.63 364.594 289.718 364.88 289.718C365.159 289.718 365.379 289.633 365.54 289.465C365.709 289.289 365.793 289.061 365.793 288.783V285.67H367.465V290.158C367.465 290.517 367.483 290.843 367.52 291.137H365.914ZM371.444 287.045C371.085 287.045 370.784 287.166 370.542 287.408C370.307 287.65 370.19 287.983 370.19 288.409C370.19 288.827 370.311 289.157 370.553 289.399C370.802 289.641 371.107 289.762 371.466 289.762C371.767 289.762 372.012 289.685 372.203 289.531C372.401 289.369 372.533 289.175 372.599 288.948L374.073 289.399C373.941 289.919 373.644 290.367 373.182 290.741C372.727 291.115 372.155 291.302 371.466 291.302C370.645 291.302 369.948 291.03 369.376 290.488C368.811 289.938 368.529 289.245 368.529 288.409C368.529 287.565 368.804 286.872 369.354 286.33C369.911 285.78 370.597 285.505 371.411 285.505C372.122 285.505 372.705 285.688 373.16 286.055C373.615 286.421 373.908 286.872 374.04 287.408L372.544 287.859C372.478 287.624 372.353 287.43 372.17 287.276C371.987 287.122 371.745 287.045 371.444 287.045ZM376.763 291.137H375.091V285.67H376.763V291.137ZM375.234 284.691C375.043 284.5 374.948 284.269 374.948 283.998C374.948 283.726 375.043 283.495 375.234 283.305C375.425 283.114 375.652 283.019 375.916 283.019C376.187 283.019 376.418 283.114 376.609 283.305C376.807 283.495 376.906 283.726 376.906 283.998C376.906 284.269 376.807 284.5 376.609 284.691C376.418 284.881 376.187 284.977 375.916 284.977C375.652 284.977 375.425 284.881 375.234 284.691ZM382.815 283.36L381.264 285.021H379.933L380.945 283.36H382.815ZM380.736 289.762C381.08 289.762 381.37 289.644 381.605 289.41C381.847 289.175 381.968 288.838 381.968 288.398C381.968 287.958 381.847 287.624 381.605 287.397C381.37 287.162 381.08 287.045 380.736 287.045C380.398 287.045 380.109 287.162 379.867 287.397C379.625 287.631 379.504 287.965 379.504 288.398C379.504 288.83 379.625 289.168 379.867 289.41C380.109 289.644 380.398 289.762 380.736 289.762ZM380.736 285.505C381.564 285.505 382.254 285.776 382.804 286.319C383.361 286.861 383.64 287.554 383.64 288.398C383.64 289.241 383.361 289.938 382.804 290.488C382.254 291.03 381.564 291.302 380.736 291.302C379.914 291.302 379.225 291.027 378.668 290.477C378.11 289.927 377.832 289.234 377.832 288.398C377.832 287.562 378.11 286.872 378.668 286.33C379.225 285.78 379.914 285.505 380.736 285.505ZM386.388 288.002V291.137H384.716V285.67H386.333V286.297C386.472 286.055 386.685 285.868 386.971 285.736C387.264 285.596 387.561 285.527 387.862 285.527C388.515 285.527 389.01 285.732 389.347 286.143C389.684 286.546 389.853 287.067 389.853 287.705V291.137H388.181V287.991C388.181 287.705 388.104 287.477 387.95 287.309C387.803 287.133 387.583 287.045 387.29 287.045C387.019 287.045 386.799 287.136 386.63 287.32C386.469 287.496 386.388 287.723 386.388 288.002ZM339.546 305.137H334.596V297.338H339.535V298.977H336.334V300.462H339.238V301.991H336.334V303.487H339.546V305.137ZM340.437 303.586L341.856 303.333C341.871 303.538 341.948 303.714 342.087 303.861C342.234 304 342.443 304.07 342.714 304.07C342.919 304.07 343.077 304.026 343.187 303.938C343.297 303.842 343.352 303.729 343.352 303.597C343.352 303.377 343.172 303.226 342.813 303.146L342.186 303.003C341.629 302.885 341.218 302.68 340.954 302.387C340.69 302.086 340.558 301.73 340.558 301.32C340.558 300.814 340.756 300.385 341.152 300.033C341.555 299.681 342.058 299.505 342.659 299.505C343.37 299.505 343.902 299.677 344.254 300.022C344.613 300.359 344.811 300.729 344.848 301.133L343.462 301.386C343.44 301.188 343.363 301.026 343.231 300.902C343.106 300.777 342.923 300.715 342.681 300.715C342.52 300.715 342.38 300.759 342.263 300.847C342.146 300.935 342.087 301.048 342.087 301.188C342.087 301.408 342.23 301.543 342.516 301.595L343.242 301.738C343.792 301.848 344.21 302.057 344.496 302.365C344.782 302.673 344.925 303.036 344.925 303.454C344.925 303.96 344.734 304.396 344.353 304.763C343.972 305.122 343.436 305.302 342.747 305.302C342.344 305.302 341.984 305.243 341.669 305.126C341.361 305.008 341.123 304.858 340.954 304.675C340.793 304.484 340.668 304.297 340.58 304.114C340.499 303.93 340.452 303.754 340.437 303.586ZM347.684 307.227H346.012V299.67H347.629V300.231C347.754 300.04 347.959 299.879 348.245 299.747C348.538 299.607 348.868 299.538 349.235 299.538C350.012 299.538 350.628 299.805 351.083 300.341C351.545 300.869 351.776 301.551 351.776 302.387C351.776 303.223 351.53 303.912 351.039 304.455C350.555 304.99 349.932 305.258 349.169 305.258C348.48 305.258 347.985 305.074 347.684 304.708V307.227ZM349.774 303.41C350.016 303.168 350.137 302.83 350.137 302.398C350.137 301.965 350.016 301.631 349.774 301.397C349.539 301.162 349.246 301.045 348.894 301.045C348.549 301.045 348.256 301.162 348.014 301.397C347.779 301.631 347.662 301.965 347.662 302.398C347.662 302.83 347.779 303.168 348.014 303.41C348.256 303.644 348.549 303.762 348.894 303.762C349.246 303.762 349.539 303.644 349.774 303.41ZM352.525 303.63C352.525 303.168 352.675 302.797 352.976 302.519C353.276 302.233 353.665 302.053 354.142 301.98L355.429 301.782C355.693 301.745 355.825 301.62 355.825 301.408C355.825 301.239 355.751 301.1 355.605 300.99C355.465 300.872 355.271 300.814 355.022 300.814C354.743 300.814 354.519 300.894 354.351 301.056C354.189 301.21 354.101 301.397 354.087 301.617L352.635 301.32C352.671 300.865 352.895 300.451 353.306 300.077C353.724 299.695 354.299 299.505 355.033 299.505C355.861 299.505 356.47 299.703 356.859 300.099C357.255 300.495 357.453 301.001 357.453 301.617V304.29C357.453 304.634 357.475 304.917 357.519 305.137H356.012C355.975 304.99 355.957 304.785 355.957 304.521C355.641 305.034 355.128 305.291 354.417 305.291C353.837 305.291 353.375 305.129 353.031 304.807C352.693 304.477 352.525 304.084 352.525 303.63ZM354.824 304.081C355.11 304.081 355.348 303.996 355.539 303.828C355.729 303.659 355.825 303.38 355.825 302.992V302.75L354.791 302.915C354.38 302.981 354.175 303.182 354.175 303.52C354.175 303.674 354.226 303.806 354.329 303.916C354.439 304.026 354.604 304.081 354.824 304.081ZM360.532 302.002V305.137H358.86V299.67H360.477V300.297C360.616 300.055 360.829 299.868 361.115 299.736C361.408 299.596 361.705 299.527 362.006 299.527C362.658 299.527 363.153 299.732 363.491 300.143C363.828 300.546 363.997 301.067 363.997 301.705V305.137H362.325V301.991C362.325 301.705 362.248 301.477 362.094 301.309C361.947 301.133 361.727 301.045 361.434 301.045C361.162 301.045 360.942 301.136 360.774 301.32C360.612 301.496 360.532 301.723 360.532 302.002ZM363.469 297.371V297.591C363.469 298.06 363.355 298.416 363.128 298.658C362.908 298.9 362.611 299.021 362.237 299.021C362.002 299.021 361.723 298.936 361.401 298.768C361.093 298.614 360.887 298.537 360.785 298.537C360.543 298.537 360.418 298.694 360.411 299.01H359.465V298.757C359.465 298.302 359.578 297.957 359.806 297.723C360.04 297.481 360.341 297.36 360.708 297.36C360.957 297.36 361.236 297.444 361.544 297.613C361.815 297.774 362.017 297.855 362.149 297.855C362.391 297.855 362.519 297.693 362.534 297.371H363.469ZM367.91 303.762C368.254 303.762 368.544 303.644 368.779 303.41C369.021 303.175 369.142 302.838 369.142 302.398C369.142 301.958 369.021 301.624 368.779 301.397C368.544 301.162 368.254 301.045 367.91 301.045C367.572 301.045 367.283 301.162 367.041 301.397C366.799 301.631 366.678 301.965 366.678 302.398C366.678 302.83 366.799 303.168 367.041 303.41C367.283 303.644 367.572 303.762 367.91 303.762ZM367.91 299.505C368.738 299.505 369.428 299.776 369.978 300.319C370.535 300.861 370.814 301.554 370.814 302.398C370.814 303.241 370.535 303.938 369.978 304.488C369.428 305.03 368.738 305.302 367.91 305.302C367.088 305.302 366.399 305.027 365.842 304.477C365.284 303.927 365.006 303.234 365.006 302.398C365.006 301.562 365.284 300.872 365.842 300.33C366.399 299.78 367.088 299.505 367.91 299.505ZM373.562 305.137H371.89V297.173H373.562V305.137ZM374.654 303.63C374.654 303.168 374.804 302.797 375.105 302.519C375.405 302.233 375.794 302.053 376.271 301.98L377.558 301.782C377.822 301.745 377.954 301.62 377.954 301.408C377.954 301.239 377.88 301.1 377.734 300.99C377.594 300.872 377.4 300.814 377.151 300.814C376.872 300.814 376.648 300.894 376.48 301.056C376.318 301.21 376.23 301.397 376.216 301.617L374.764 301.32C374.8 300.865 375.024 300.451 375.435 300.077C375.853 299.695 376.428 299.505 377.162 299.505C377.99 299.505 378.599 299.703 378.988 300.099C379.384 300.495 379.582 301.001 379.582 301.617V304.29C379.582 304.634 379.604 304.917 379.648 305.137H378.141C378.104 304.99 378.086 304.785 378.086 304.521C377.77 305.034 377.257 305.291 376.546 305.291C375.966 305.291 375.504 305.129 375.16 304.807C374.822 304.477 374.654 304.084 374.654 303.63ZM376.953 304.081C377.239 304.081 377.477 303.996 377.668 303.828C377.858 303.659 377.954 303.38 377.954 302.992V302.75L376.92 302.915C376.509 302.981 376.304 303.182 376.304 303.52C376.304 303.674 376.355 303.806 376.458 303.916C376.568 304.026 376.733 304.081 376.953 304.081Z" fill="#757679"/>
<path d="M254 201.137C283.283 201.137 289 216.807 289 236.137C289 255.467 282.41 271.137 254 271.137C225.59 271.137 219 255.467 219 236.137C219 216.807 224.717 201.137 254 201.137Z" fill="white"/>
<path d="M151 201.137C180.283 201.137 186 216.807 186 236.137C186 255.467 179.41 271.137 151 271.137C122.59 271.137 116 255.467 116 236.137C116 216.807 121.717 201.137 151 201.137Z" fill="white"/>
<path d="M357 201.137C386.283 201.137 392 216.807 392 236.137C392 255.467 385.41 271.137 357 271.137C328.59 271.137 322 255.467 322 236.137C322 216.807 327.717 201.137 357 201.137Z" fill="white"/>
<path d="M156.906 222.796L144.896 224.675C144.362 224.754 143.986 225.269 144.065 225.803C144.144 226.337 144.658 226.713 145.193 226.634L157.202 224.754C157.737 224.675 158.113 224.161 158.033 223.627C157.954 223.073 157.44 222.697 156.906 222.796Z" fill="#DB9597"/>
<path d="M157.875 228.969L139.613 231.837C139.079 231.917 138.703 232.431 138.782 232.965C138.861 233.499 139.376 233.875 139.91 233.796L158.172 230.927C158.706 230.848 159.082 230.334 159.003 229.8C158.924 229.265 158.409 228.889 157.875 228.969Z" fill="#DB9597"/>
<path d="M171.349 220.54L166.363 218.601C165.849 218.403 165.275 218.66 165.077 219.155L163.415 223.389L162.841 219.748C162.485 217.413 160.289 215.831 157.954 216.187L135.616 219.689C133.281 220.045 131.679 222.241 132.055 224.576L136.467 252.731C136.843 255.066 139.019 256.648 141.354 256.292L163.712 252.79C166.046 252.434 167.629 250.238 167.273 247.903L165.69 237.773L171.923 221.845C172.101 221.311 171.844 220.737 171.349 220.54ZM163.395 250.812L141.037 254.314C139.791 254.512 138.604 253.661 138.426 252.395L133.994 224.259C133.796 223.013 134.647 221.826 135.913 221.628L158.271 218.126C159.517 217.928 160.704 218.779 160.882 220.045L161.971 227.029L158.785 235.161L157.954 237.298L156.272 241.631V241.651C156.253 241.71 156.233 241.77 156.233 241.829V241.849C156.233 241.888 156.213 241.948 156.213 242.007V242.047C156.213 242.066 156.213 242.066 156.213 242.066L156.668 248.259C156.688 248.635 156.945 248.972 157.301 249.11C157.657 249.249 158.053 249.169 158.33 248.912L162.861 244.658L162.881 244.639C162.881 244.639 162.901 244.619 162.901 244.599C162.94 244.559 162.96 244.52 163 244.48C163 244.48 163 244.46 163.019 244.46C163.059 244.421 163.079 244.362 163.098 244.302V244.282L164.226 241.394L165.295 248.18C165.512 249.446 164.642 250.614 163.395 250.812ZM158.31 243.491L160.368 244.302L158.488 246.063L158.31 243.491ZM165.057 233.875L163.633 237.535L161.634 242.68L158.488 241.453L162.604 230.927L164.028 227.267L166.561 220.797L169.707 222.024L165.057 233.875Z" fill="#8B2F32"/>
<path d="M158.805 235.18L157.974 237.317L140.879 239.988C140.345 240.067 139.83 239.711 139.751 239.157C139.672 238.623 140.028 238.109 140.582 238.03L158.805 235.18Z" fill="#DB9597"/>
<path d="M152.137 242.561L141.552 244.223C141.018 244.302 140.642 244.816 140.721 245.35C140.8 245.885 141.315 246.26 141.849 246.181L152.434 244.519C152.968 244.44 153.344 243.926 153.265 243.392C153.186 242.838 152.672 242.481 152.137 242.561Z" fill="#DB9597"/>
<path d="M366.429 230.773L363.257 229.505C363.046 229.399 362.834 229.399 362.623 229.505L359.451 230.773V218.933H357.654V232.147C357.654 232.676 358.077 232.993 358.5 232.993C358.606 232.993 358.711 232.993 358.817 232.887L362.94 231.302L367.063 232.887C367.486 233.099 368.014 232.887 368.226 232.359C368.226 232.253 368.331 232.147 368.331 232.042V218.933H366.429V230.773Z" fill="#DB9597"/>
<path d="M344.44 254.137H370.869C372.349 254.137 373.511 252.974 373.511 251.494V249.697V219.78C373.511 218.3 372.349 217.137 370.869 217.137H367.38C367.909 217.137 368.226 217.56 368.226 217.982V218.828H370.869C371.291 218.934 371.714 219.251 371.714 219.78V245.468C371.397 245.362 371.186 245.362 370.869 245.362H347.083V218.934H357.654V217.982C357.654 217.56 357.971 217.137 358.5 217.137C359.029 217.137 359.346 217.56 359.346 217.982V218.828H366.429V217.982C366.429 217.56 366.851 217.137 367.274 217.137H342.643C341.163 217.137 340 218.3 340 219.78V249.697C340 252.128 342.009 254.137 344.44 254.137ZM341.797 219.78C341.797 219.251 342.114 218.934 342.643 218.934H345.286V245.362H344.44C343.489 245.362 342.537 245.68 341.797 246.208V219.78V219.78ZM344.44 247.054H370.869C371.397 247.054 371.714 247.477 371.714 247.9V251.388C371.714 251.917 371.291 252.234 370.869 252.234H344.44C342.96 252.234 341.797 251.071 341.797 249.591C341.797 248.322 342.96 247.054 344.44 247.054Z" fill="#8B2F32"/>
<path d="M359.346 217.982C359.346 217.56 359.029 217.137 358.5 217.137C357.971 217.137 357.654 217.56 357.654 217.982V218.828H359.451V217.982H359.346Z" fill="#8B2F32"/>
<path d="M366.429 217.982V218.828H368.226V217.982C368.226 217.454 367.803 217.137 367.38 217.137C366.852 217.137 366.429 217.56 366.429 217.982Z" fill="#8B2F32"/>
<path d="M250.433 218.221C251.671 217.511 253.073 217.137 254.5 217.137C255.927 217.137 257.33 217.511 258.567 218.221L278.317 229.562C278.525 229.682 278.697 229.854 278.817 230.061C278.937 230.268 279 230.503 279 230.742C279 230.982 278.937 231.217 278.817 231.424C278.697 231.631 278.525 231.803 278.317 231.923L270.834 236.218V248.436C270.834 248.615 270.799 248.792 270.731 248.957C270.663 249.122 270.563 249.273 270.436 249.399L270.431 249.402L270.425 249.41L270.406 249.427L270.344 249.486L270.126 249.688C269.935 249.854 269.663 250.088 269.307 250.363C268.329 251.114 267.29 251.781 266.2 252.358C262.598 254.27 258.578 255.261 254.5 255.244C250.422 255.261 246.403 254.27 242.8 252.358C241.712 251.781 240.674 251.114 239.697 250.363C239.338 250.086 238.991 249.793 238.657 249.486C238.507 249.354 238.386 249.193 238.302 249.012C238.218 248.831 238.172 248.635 238.167 248.436V236.218L232.722 233.093V245.713C232.722 246.074 232.579 246.421 232.324 246.676C232.068 246.931 231.722 247.075 231.361 247.075C231 247.075 230.654 246.931 230.399 246.676C230.143 246.421 230 246.074 230 245.713V230.741C230 230.497 230.065 230.257 230.19 230.046C230.315 229.836 230.493 229.663 230.708 229.546L250.433 218.221ZM258.567 243.261C257.33 243.971 255.927 244.345 254.5 244.345C253.073 244.345 251.671 243.971 250.433 243.261L240.889 237.781V247.829C241.88 248.642 242.95 249.355 244.082 249.957C246.478 251.237 250.003 252.519 254.5 252.519C258.131 252.537 261.709 251.658 264.918 249.96C266.051 249.356 267.12 248.641 268.111 247.826V237.781L258.567 243.258V243.261ZM257.212 220.584C256.386 220.111 255.452 219.861 254.5 219.861C253.549 219.861 252.614 220.111 251.789 220.584L234.094 230.741L251.789 240.9C252.614 241.374 253.549 241.624 254.5 241.624C255.452 241.624 256.386 241.374 257.212 240.9L274.906 230.741L257.212 220.582V220.584Z" fill="#8B2F32"/>
<defs>
<filter id="filter0_ddd_1108_721" x="59" y="32" width="395" height="78" filterUnits="userSpaceOnUse" color-interpolation-filters="sRGB">
<feFlood flood-opacity="0" result="BackgroundImageFix"/>
<feColorMatrix in="SourceAlpha" type="matrix" values="0 0 0 0 0 0 0 0 0 0 0 0 0 0 0 0 0 0 127 0" result="hardAlpha"/>
<feOffset dy="2"/>
<feGaussianBlur stdDeviation="2"/>
<feColorMatrix type="matrix" values="0 0 0 0 0 0 0 0 0 0 0 0 0 0 0 0 0 0 0.2 0"/>
<feBlend mode="normal" in2="BackgroundImageFix" result="effect1_dropShadow_1108_721"/>
<feColorMatrix in="SourceAlpha" type="matrix" values="0 0 0 0 0 0 0 0 0 0 0 0 0 0 0 0 0 0 127 0" result="hardAlpha"/>
<feOffset dy="1"/>
<feGaussianBlur stdDeviation="5"/>
<feColorMatrix type="matrix" values="0 0 0 0 0 0 0 0 0 0 0 0 0 0 0 0 0 0 0.12 0"/>
<feBlend mode="normal" in2="effect1_dropShadow_1108_721" result="effect2_dropShadow_1108_721"/>
<feColorMatrix in="SourceAlpha" type="matrix" values="0 0 0 0 0 0 0 0 0 0 0 0 0 0 0 0 0 0 127 0" result="hardAlpha"/>
<feOffset dy="4"/>
<feGaussianBlur stdDeviation="2.5"/>
<feColorMatrix type="matrix" values="0 0 0 0 0 0 0 0 0 0 0 0 0 0 0 0 0 0 0.14 0"/>
<feBlend mode="normal" in2="effect2_dropShadow_1108_721" result="effect3_dropShadow_1108_721"/>
<feBlend mode="normal" in="SourceGraphic" in2="effect3_dropShadow_1108_721" result="shape"/>
</filter>
<filter id="filter1_ddd_1108_721" x="60" y="127" width="393" height="209.137" filterUnits="userSpaceOnUse" color-interpolation-filters="sRGB">
<feFlood flood-opacity="0" result="BackgroundImageFix"/>
<feColorMatrix in="SourceAlpha" type="matrix" values="0 0 0 0 0 0 0 0 0 0 0 0 0 0 0 0 0 0 127 0" result="hardAlpha"/>
<feOffset dy="2"/>
<feGaussianBlur stdDeviation="2"/>
<feColorMatrix type="matrix" values="0 0 0 0 0 0 0 0 0 0 0 0 0 0 0 0 0 0 0.2 0"/>
<feBlend mode="normal" in2="BackgroundImageFix" result="effect1_dropShadow_1108_721"/>
<feColorMatrix in="SourceAlpha" type="matrix" values="0 0 0 0 0 0 0 0 0 0 0 0 0 0 0 0 0 0 127 0" result="hardAlpha"/>
<feOffset/>
<feGaussianBlur stdDeviation="4.5"/>
<feColorMatrix type="matrix" values="0 0 0 0 0 0 0 0 0 0 0 0 0 0 0 0 0 0 0.34 0"/>
<feBlend mode="normal" in2="effect1_dropShadow_1108_721" result="effect2_dropShadow_1108_721"/>
<feColorMatrix in="SourceAlpha" type="matrix" values="0 0 0 0 0 0 0 0 0 0 0 0 0 0 0 0 0 0 127 0" result="hardAlpha"/>
<feOffset dy="4"/>
<feGaussianBlur stdDeviation="2.5"/>
<feColorMatrix type="matrix" values="0 0 0 0 0 0 0 0 0 0 0 0 0 0 0 0 0 0 0.14 0"/>
<feBlend mode="normal" in2="effect2_dropShadow_1108_721" result="effect3_dropShadow_1108_721"/>
<feBlend mode="normal" in="SourceGraphic" in2="effect3_dropShadow_1108_721" result="shape"/>
</filter>
<clipPath id="clip0_1108_721">
<rect width="18.5405" height="18.5405" fill="white" transform="translate(330 60)"/>
</clipPath>
</defs>
</svg>
