<svg width="285" height="350" viewBox="0 0 285 350" fill="none" xmlns="http://www.w3.org/2000/svg">
<path stroke="currentColor" stroke-width="13" d="M278.15 84.9866L278.15 84.9893L278.129 85.2307V85.5066V313.838C278.129 330.177 264.816 343.496 248.482 343.496H36.1477C19.8138 343.496 6.50073 330.177 6.50073 313.838V36.1565C6.50073 19.8181 19.8138 6.49868 36.1477 6.49868L195.352 6.49744L195.352 4.09443L195.511 6.42587C195.514 6.50248 195.514 6.50249 195.514 6.50251L195.511 6.50262L195.506 6.50282L195.499 6.50312L195.493 6.50337C195.492 6.50339 195.499 6.50313 195.513 6.50272C195.541 6.50191 195.598 6.50048 195.681 6.49938C195.847 6.49717 196.117 6.4963 196.476 6.50416C197.197 6.51995 198.26 6.57059 199.544 6.71256C202.153 7.00105 205.462 7.6441 208.61 8.99508C211.375 10.1814 213.739 11.6874 215.425 12.9178C216.26 13.5265 216.905 14.0508 217.326 14.4079C217.536 14.586 217.688 14.721 217.778 14.8024C217.796 14.8186 217.812 14.8327 217.825 14.8446L217.83 14.8497L217.875 14.8936L270.175 66.193L270.23 66.2689L270.628 66.6494L270.634 66.655L270.634 66.6557C270.646 66.6675 270.674 66.6944 270.715 66.7359C270.797 66.8191 270.934 66.9599 271.114 67.1537C271.475 67.5427 272.003 68.1367 272.608 68.8989C273.84 70.4493 275.289 72.5647 276.359 74.9625C277.426 77.3541 277.896 79.8923 278.076 81.9253C278.164 82.9208 278.179 83.7416 278.173 84.2893C278.17 84.5617 278.162 84.7624 278.156 84.8786C278.154 84.9122 278.153 84.9387 278.152 84.9576C278.151 84.9687 278.151 84.9772 278.15 84.983C278.15 84.9844 278.15 84.9856 278.15 84.9866Z"/>
<path fill="currentColor" d="M28.7425 249.375C15.6943 236.367 29.8114 218.494 68.1234 199.514L92.2299 187.571L101.621 167.087C106.787 155.821 114.496 137.439 118.753 126.237L126.493 105.871L121.159 90.7991C114.601 72.2665 112.262 44.4168 116.423 34.4026C122.059 20.8381 140.521 22.2298 147.83 36.7702C153.538 48.1262 152.955 68.6915 146.188 94.6275L140.641 115.89L145.527 124.159C148.215 128.707 156.065 139.506 162.972 148.156L175.953 164.253L192.107 162.152C243.423 155.477 261 166.822 261 183.089C261 203.62 220.705 205.314 186.868 181.623C179.254 176.292 174.026 170.997 174.026 170.997C174.026 170.997 152.828 175.299 142.391 178.103C131.618 180.998 126.243 182.81 110.463 188.12C110.463 188.12 104.926 196.136 101.318 201.963C87.8942 223.643 72.221 241.609 61.0279 248.148C48.4956 255.47 35.3574 255.969 28.7425 249.375V249.375ZM49.2195 242.082C56.5541 237.563 71.3994 220.06 81.6758 203.815L85.8364 197.238L66.8918 206.734C37.6321 221.399 24.2463 235.221 31.2068 243.582C35.117 248.278 39.7946 247.889 49.2195 242.082V242.082ZM239.278 188.901C246.452 183.892 245.411 173.798 237.3 169.728C230.988 166.561 225.901 165.91 209.504 166.151C199.428 166.836 183.225 168.86 180.479 169.476C180.479 169.476 189.38 175.609 193.332 177.863C198.593 180.858 211.377 186.418 220.71 189.266C229.917 192.075 235.243 191.779 239.278 188.901V188.901ZM162.858 157.238C158.516 152.689 151.134 143.193 146.452 136.136C140.33 128.132 137.26 122.485 137.26 122.485C137.26 122.485 132.784 136.834 129.113 145.468L117.659 173.692L114.338 180.094C114.338 180.094 131.993 174.323 140.976 171.984C150.49 169.506 169.8 165.721 169.8 165.721L162.858 157.238ZM138.231 58.7858C139.338 49.5216 139.808 40.2711 136.822 35.6063C128.54 26.5808 118.544 34.1074 120.237 55.5649C120.807 62.7834 122.606 75.1232 125.011 82.7288L129.384 96.5571L132.461 86.1421C134.154 80.4138 136.75 68.1034 138.231 58.7858V58.7858Z"/>
<path fill="currentColor" d="M84.9677 246.227H98.2351C102.474 246.227 105.916 246.633 108.559 247.444C111.202 248.229 113.426 249.995 115.232 252.743C117.037 255.465 117.94 258.749 117.94 262.596C117.94 266.128 117.207 269.164 115.742 271.702C114.276 274.241 112.301 276.072 109.815 277.198C107.355 278.323 103.56 278.886 98.4314 278.886H93.8388V299.807H84.9677V246.227ZM93.8388 253.096V271.781H98.2351C102.16 271.781 104.869 271.048 106.36 269.583C107.878 268.117 108.637 265.736 108.637 262.439C108.637 259.979 108.14 257.99 107.146 256.472C106.151 254.928 105.052 253.986 103.848 253.646C102.671 253.279 100.8 253.096 98.2351 253.096L93.8388 253.096ZM124.731 246.227H136.781C142.617 246.227 147.275 247.261 150.755 249.328C154.262 251.395 156.905 254.47 158.685 258.553C160.49 262.635 161.393 267.162 161.393 272.134C161.393 277.368 160.582 282.039 158.959 286.147C157.363 290.23 154.903 293.527 151.58 296.039C148.283 298.551 143.572 299.807 137.449 299.807H124.731V246.227ZM133.602 253.332V292.703H137.292C142.447 292.703 146.189 290.923 148.518 287.364C150.847 283.779 152.012 279.003 152.012 273.037C152.012 259.9 147.105 253.332 137.292 253.332H133.602ZM169.911 246.227H199.665V253.332H178.782V269.347H195.504V276.452H178.782V299.807H169.911V246.227Z"/>
</svg>
