<svg width="512" height="512" viewBox="0 0 512 512" fill="none" xmlns="http://www.w3.org/2000/svg">
<rect width="512" height="512" rx="120" fill="white"/>
<g clip-path="url(#clip0_1101_3)">
<path d="M300.732 186.195C278.116 208.259 259.834 226.127 246.562 239.257C245.614 240.204 244.26 240.881 242.77 240.746C241.28 240.746 239.926 240.069 238.978 238.986C236.676 236.549 235.051 234.654 233.29 232.759C231.665 230.864 229.905 229.104 227.738 226.803C223.946 222.742 218.8 220.306 213.247 220.171C207.559 220.035 202.413 222.066 198.486 225.72L198.215 226.262C194.152 230.052 191.85 235.331 191.85 240.881C191.715 246.431 193.881 251.71 197.809 255.771C204.715 262.674 209.862 268.089 215.008 273.368C220.019 278.511 225.029 283.655 231.394 290.153C235.322 294.078 240.468 296.244 246.02 296.244H246.156C251.573 296.244 256.719 294.078 260.646 290.288L388.353 164.402C392.415 160.476 394.582 155.197 394.447 149.512C394.311 143.827 392.144 138.548 387.946 134.757L384.696 131.78C376.571 124.064 363.976 124.199 355.986 132.05C349.756 138.277 342.037 145.857 333.505 154.114C323.89 163.454 313.327 173.877 302.628 184.3L300.732 186.195Z" fill="#6F52FF"/>
<path d="M271.209 329.813C262 332.927 252.385 334.551 242.499 334.551C193.881 334.551 154.337 295.026 154.337 246.431C154.337 197.836 193.881 158.31 242.499 158.31C253.198 158.31 263.761 160.205 273.647 163.996C273.918 164.131 279.877 165.755 283.127 166.161C293.284 167.515 302.493 165.078 309.264 159.664C314.681 155.197 317.931 148.97 318.337 142.067C319.15 128.937 310.889 118.108 296.263 112.829L295.044 112.287C276.897 105.519 259.292 102 242.499 102C162.869 102 98 166.838 98 246.431C98 285.55 113.98 323.587 142.013 350.93C168.557 376.784 202.955 390.997 239.384 390.997C240.468 390.997 241.551 390.997 242.635 390.997C257.667 390.591 270.939 388.425 282.585 385.312C274.595 373.535 269.855 359.458 269.855 344.162C269.855 339.153 270.261 334.416 271.209 329.813Z" fill="#757679"/>
<path d="M373.049 347.682V343.216H368.309C367.903 337.936 365.736 333.063 362.486 329.273L366.278 325.483L363.027 322.234L359.236 326.025C355.308 322.776 350.568 320.746 345.151 320.204V314.79H357.069V310.323H345.151V298.14H340.682V310.323H328.9V314.79H340.682V320.339C335.401 320.881 330.661 322.911 326.869 326.16L323.077 322.37L319.827 325.619L323.619 329.409C320.368 333.199 318.337 338.072 317.795 343.351H312.514V347.818H317.795C318.202 353.097 320.368 357.835 323.619 361.76L319.827 365.55L323.077 368.799L326.869 365.009C330.661 368.257 335.536 370.288 340.682 370.829V395.736L342.984 400.338L345.287 395.736V370.559C350.568 370.152 355.444 367.987 359.371 364.738L363.163 368.528L366.413 365.279L362.621 361.489C365.871 357.699 367.903 352.826 368.444 347.547H373.049V347.682ZM356.256 329.003L345.151 340.102V324.536C349.349 324.806 353.141 326.431 356.256 329.003ZM340.682 324.4V339.831L329.848 329.003C332.828 326.566 336.619 324.942 340.682 324.4ZM321.993 345.381C321.993 340.373 323.754 335.771 326.598 332.251L339.734 345.381L326.598 358.511C323.754 354.992 321.993 350.39 321.993 345.381ZM329.848 361.76L340.682 350.931V366.362C336.619 365.821 332.828 364.197 329.848 361.76ZM345.287 366.362V350.796L356.392 361.895C353.141 364.332 349.349 365.956 345.287 366.362ZM359.506 358.647L346.235 345.381L359.506 332.116C362.486 335.771 364.246 340.373 364.246 345.381C364.111 350.39 362.35 354.992 359.506 358.647Z" fill="#6F52FF"/>
<path d="M323.89 297.733L324.973 298.816L326.057 298.275C330.661 295.568 337.026 293.943 343.662 293.943C350.027 293.943 356.121 295.297 360.59 297.869L361.809 298.816L362.757 297.733L374.404 284.739L374.539 284.468C375.758 282.573 376.435 280.272 376.435 277.835C376.435 271.203 371.018 265.788 364.382 265.788C362.486 265.788 360.59 266.194 358.83 267.142C357.205 266.33 355.309 265.788 353.277 265.788C350.027 265.788 347.048 267.006 344.881 269.172V265.247H347.725V261.863H344.881V259.968H341.495V261.863H338.651V265.247H341.495V269.172C339.328 267.142 336.349 265.788 333.099 265.788C331.067 265.788 329.171 266.33 327.546 267.142C325.786 266.194 323.89 265.788 321.994 265.788C315.358 265.788 309.941 271.203 309.941 277.835C309.941 280.136 310.618 282.438 311.837 284.468L323.89 297.733ZM321.181 284.468C321.181 285.416 320.369 286.228 319.421 286.228C318.473 286.228 317.66 285.416 317.66 284.468C317.66 283.52 318.473 282.708 319.421 282.708C320.369 282.708 321.181 283.52 321.181 284.468ZM361.267 294.349C356.392 291.913 350.162 290.559 343.662 290.559C336.891 290.559 330.661 292.048 325.65 294.62L320.369 288.8C322.4 288.393 323.89 286.634 323.89 284.468C323.89 283.927 323.754 283.52 323.619 283.114H327.275C327.14 283.52 327.005 284.062 327.005 284.468C327.005 286.904 329.036 288.8 331.338 288.8C333.64 288.8 335.672 286.769 335.672 284.468C335.672 283.927 335.536 283.52 335.401 283.114H339.057C338.922 283.52 338.787 284.062 338.787 284.468C338.787 286.904 340.818 288.8 343.12 288.8C345.422 288.8 347.454 286.769 347.454 284.468C347.454 283.927 347.318 283.52 347.183 283.114H350.84C350.704 283.52 350.569 284.062 350.569 284.468C350.569 286.904 352.6 288.8 354.902 288.8C357.205 288.8 359.236 286.769 359.236 284.468C359.236 283.927 359.1 283.52 358.965 283.114H362.622C362.486 283.52 362.351 284.062 362.351 284.468C362.351 286.634 363.84 288.393 365.872 288.8L361.267 294.349ZM333.099 284.468C333.099 285.416 332.286 286.228 331.338 286.228C330.39 286.228 329.578 285.416 329.578 284.468C329.578 283.927 329.849 283.385 330.255 283.114H332.422C332.828 283.385 333.099 283.927 333.099 284.468ZM335.943 279.73H330.39C331.067 277.158 333.234 274.993 335.943 274.587V279.73ZM345.016 284.468C345.016 285.416 344.204 286.228 343.256 286.228C342.308 286.228 341.495 285.416 341.495 284.468C341.495 283.927 341.766 283.385 342.172 283.114H344.339C344.745 283.385 345.016 283.927 345.016 284.468ZM356.934 284.468C356.934 285.416 356.121 286.228 355.173 286.228C354.225 286.228 353.413 285.416 353.413 284.468C353.413 283.927 353.683 283.385 354.09 283.114H356.257C356.663 283.385 356.934 283.927 356.934 284.468ZM350.569 279.73V274.587C353.277 275.128 355.444 277.158 356.121 279.73H350.569ZM367.226 286.228C366.278 286.228 365.465 285.416 365.465 284.468C365.465 283.52 366.278 282.708 367.226 282.708C368.174 282.708 368.987 283.52 368.987 284.468C368.987 285.416 368.174 286.228 367.226 286.228ZM373.049 277.971C373.049 279.595 372.643 281.219 371.695 282.573L371.289 283.114C370.747 281.355 369.122 280.136 367.091 280.136C366.413 280.136 365.872 280.272 365.33 280.542V277.971C365.33 274.722 364.111 271.879 361.944 269.714C362.757 269.443 363.57 269.307 364.382 269.307C369.257 269.307 373.049 273.233 373.049 277.971ZM341.631 275.399V280.136H345.152V275.399C346.235 271.879 349.485 269.307 353.413 269.307C358.153 269.307 362.08 273.233 362.08 277.971V279.595H358.83C358.017 275.128 354.09 271.609 349.35 271.609C348.673 271.609 347.996 272.15 347.996 272.962V279.595H338.651V272.962C338.651 272.285 338.11 271.609 337.297 271.609C332.557 271.609 328.63 274.993 327.817 279.595H324.702V277.971C324.702 273.233 328.63 269.307 333.37 269.307C337.162 269.307 340.547 271.879 341.631 275.399ZM322.129 269.307C322.942 269.307 323.754 269.443 324.567 269.714C322.536 271.879 321.181 274.857 321.181 277.971V280.407C320.64 280.136 320.098 280.001 319.421 280.001C317.525 280.001 315.764 281.355 315.223 283.114L314.816 282.573C314.004 281.219 313.462 279.595 313.462 277.971C313.462 273.233 317.389 269.307 322.129 269.307Z" fill="#6F52FF"/>
<path d="M398.509 363.52C398.78 363.52 399.051 363.52 399.322 363.52C404.061 362.978 408.395 357.834 412.322 348.224L413.135 346.058L410.833 345.923C410.426 345.923 402.436 345.517 395.936 351.337C396.207 348.63 396.478 345.923 396.478 343.08C396.478 341.456 396.342 339.831 396.342 338.207C397.426 337.666 399.457 336.718 401.082 334.823C403.384 332.251 405.687 327.514 403.52 319.663L402.978 317.903L401.218 318.58C400.947 318.715 396.748 320.339 394.175 325.754C393.363 322.911 392.415 320.204 391.331 317.497C391.738 316.008 392.144 312.759 390.383 309.375C388.217 305.314 383.612 302.607 376.705 301.118L374.539 300.712L374.674 302.878C374.674 303.284 375.216 312.218 380.633 316.82C382.664 318.58 385.102 319.392 387.946 319.392C388.081 319.392 388.352 319.392 388.488 319.392C390.654 324.806 392.144 330.356 392.686 336.041C387.404 329.002 380.633 327.243 380.227 327.107L377.789 326.431L378.06 328.867C379.279 338.478 382.122 344.569 386.727 346.87C388.217 347.682 389.571 347.818 390.925 347.818C391.602 347.818 392.279 347.682 392.821 347.682C392.279 354.18 390.925 360.542 388.488 366.362C387.404 357.428 380.768 352.42 380.768 352.285L379.008 350.931L378.195 352.961C374.945 360.406 374.539 366.768 376.705 371.641C378.195 375.025 380.633 377.056 382.393 378.003C381.445 379.357 380.497 380.711 379.414 382.064C376.705 385.584 373.591 388.697 370.34 391.54C372.372 383.282 369.663 372.995 369.528 372.454L368.715 369.476L366.549 371.777C354.767 384.771 357.881 394.924 359.777 398.714C354.767 401.556 349.35 403.722 343.526 405.211C337.703 403.722 332.286 401.556 327.275 398.714C329.171 394.924 332.421 384.636 320.504 371.777L318.337 369.476L317.524 372.454C317.389 372.995 314.816 383.282 316.712 391.54C313.326 388.697 310.347 385.448 307.638 382.064C306.555 380.711 305.607 379.357 304.659 378.003C306.42 376.92 308.857 375.025 310.347 371.641C312.514 366.633 312.107 360.406 308.857 352.961L308.045 350.931L306.284 352.285C306.149 352.285 299.648 357.428 298.565 366.362C296.263 360.542 294.773 354.18 294.231 347.682C294.773 347.818 295.45 347.818 296.127 347.818C297.346 347.818 298.836 347.547 300.325 346.87C304.93 344.569 307.774 338.478 308.993 328.867L309.264 326.431L306.826 327.107C306.42 327.243 299.648 329.002 294.367 336.041C295.044 330.356 296.398 324.806 298.565 319.392C298.7 319.392 298.971 319.392 299.107 319.392C301.951 319.392 304.388 318.58 306.42 316.82C311.837 312.218 312.378 303.284 312.378 302.878L312.514 300.712L310.347 301.118C303.44 302.607 298.836 305.45 296.669 309.375C294.908 312.759 295.315 316.008 295.721 317.497C294.638 320.204 293.554 323.047 292.877 325.754C290.439 320.339 286.106 318.58 285.835 318.58L284.074 317.903L283.533 319.663C281.23 327.514 283.668 332.251 285.97 334.823C287.595 336.718 289.491 337.666 290.71 338.207C290.575 339.831 290.575 341.456 290.575 343.08C290.575 345.923 290.71 348.63 291.116 351.337C284.616 345.517 276.626 345.923 276.22 345.923L273.917 346.058L274.73 348.224C278.657 357.834 282.991 362.978 287.731 363.52C288.002 363.52 288.273 363.52 288.543 363.52C290.439 363.52 292.064 362.708 293.283 361.895C294.638 366.633 296.669 371.235 298.971 375.567C288.408 369.476 284.21 372.454 283.803 372.589L282.178 373.401L283.126 375.025C288.408 383.959 294.231 388.697 300.325 389.374C300.732 389.374 301.273 389.374 301.68 389.509C304.388 389.644 305.336 388.426 307.097 387.073C314.816 396.006 324.837 402.91 336.349 406.971L343.391 409.001L350.433 406.971C361.944 402.91 371.966 396.006 379.685 387.073C380.904 388.562 380.091 389.238 384.018 390.863C384.425 390.863 384.966 390.863 385.373 390.727C391.467 390.051 397.29 385.313 402.572 376.379L403.52 374.755L401.895 373.943C401.488 373.807 395.8 370.829 387.675 375.431C390.113 371.1 392.009 366.633 393.363 361.76C394.853 362.707 396.478 363.52 398.509 363.52ZM301.003 385.854C296.398 385.719 291.929 381.658 287.46 374.89C290.981 374.078 295.586 374.619 305.201 384.23C304.524 385.042 303.169 385.99 301.003 385.854ZM306.961 356.616C308.993 362.166 309.128 366.768 307.638 370.288C306.42 372.995 304.524 374.484 303.305 375.296C303.305 375.296 303.305 375.296 303.305 375.161C300.055 365.956 304.388 359.459 306.961 356.616ZM305.472 331.304C303.982 339.696 301.273 342.809 299.107 343.892C297.211 344.84 295.45 344.569 294.367 344.163C294.367 343.892 294.367 343.622 294.367 343.351C297.346 336.312 302.492 332.793 305.472 331.304ZM300.055 310.864C301.544 308.157 304.524 306.126 309.128 304.908C308.722 307.48 307.503 311.676 304.659 314.113C303.169 315.331 301.409 316.008 299.242 315.872C299.107 314.79 299.107 312.894 300.055 310.864ZM286.783 322.64C288.679 324.129 291.387 327.243 291.658 333.605C291.658 333.875 291.523 334.282 291.523 334.552C289.221 333.334 285.564 330.085 286.783 322.64ZM288.543 360.136C286.783 360 283.397 358.241 279.47 349.442C282.856 349.848 288.95 351.608 292.742 358.105C292.064 358.917 290.439 360.406 288.543 360.136ZM320.368 376.785C328.223 386.937 325.921 394.382 324.567 397.225C324.025 396.954 323.619 396.548 323.077 396.277C318.879 392.216 319.42 382.741 320.368 376.785ZM366.955 376.785C367.903 382.606 368.445 392.081 364.246 396.277C363.84 396.548 363.298 396.954 362.892 397.225C361.402 394.382 359.1 386.937 366.955 376.785ZM398.915 376.379C394.582 383.147 389.977 386.802 385.373 387.343C383.477 387.073 382.123 385.448 382.123 384.365C391.738 374.619 395.394 375.702 398.915 376.379ZM407.989 349.442C404.061 358.241 400.676 360 398.915 360.136C397.019 360.406 395.394 358.917 394.717 358.241C398.509 351.608 404.603 349.848 407.989 349.442ZM400.54 322.64C401.895 329.95 398.103 333.334 395.8 334.552C395.8 334.282 395.665 333.875 395.665 333.605C395.936 327.378 398.78 324.129 400.54 322.64ZM382.664 314.113C379.82 311.676 378.737 307.48 378.195 304.908C382.8 306.262 385.779 308.157 387.269 310.864C388.352 312.894 388.217 314.79 388.081 316.008C385.914 316.008 384.154 315.466 382.664 314.113ZM388.217 343.892C386.05 342.809 383.341 339.696 381.852 331.304C384.966 332.793 389.977 336.312 392.957 343.351C392.957 343.622 392.957 343.892 392.957 344.163C392.009 344.569 390.113 344.84 388.217 343.892ZM379.82 370.288C378.195 366.633 378.466 362.031 380.497 356.616C383.07 359.459 387.404 365.821 384.289 375.161C384.289 375.161 384.289 375.161 384.289 375.296C382.935 374.619 381.039 373.13 379.82 370.288Z" fill="#6F52FF"/>
</g>
<defs>
<clipPath id="clip0_1101_3">
<rect width="315" height="307" fill="white" transform="translate(98 102)"/>
</clipPath>
</defs>
</svg>
