<svg width="512" height="512" viewBox="0 0 512 512" fill="none" xmlns="http://www.w3.org/2000/svg">
<rect width="512" height="512" rx="120" fill="white"/>
<path d="M395.564 133.508L392.338 130.467C384.178 122.736 371.591 122.926 363.685 130.783C357.486 136.993 349.77 144.534 341.294 152.835C331.743 162.214 321.18 172.543 310.491 182.998L308.277 185.153C285.76 207.141 267.48 225.074 254.261 238.255C253.249 239.269 251.92 239.839 250.529 239.776C249.074 239.776 247.746 239.142 246.734 238.065C244.52 235.657 242.812 233.756 241.104 231.918C239.46 230.08 237.752 228.243 235.602 225.898C231.806 221.779 226.683 219.435 221.117 219.308C215.488 219.118 210.301 221.146 206.38 224.884L206.063 225.201C202.015 229.067 199.801 234.263 199.675 239.839C199.612 245.415 201.699 250.675 205.62 254.667C212.452 261.638 217.638 266.96 222.825 272.22C227.822 277.353 232.818 282.485 239.207 288.949C243.065 292.878 248.252 295.096 253.755 295.096C253.818 295.096 253.881 295.096 253.881 295.096C259.321 295.096 264.444 293.004 268.366 289.139L395.817 163.228C399.865 159.236 402.015 153.976 401.952 148.273C401.889 142.57 399.675 137.437 395.564 133.508Z" fill="#0A169A"/>
<path d="M306.253 378.36L305.684 375.889L301.256 371.073C300.687 370.439 300.497 369.615 300.687 368.791L302.395 361.694L302.078 360.427L301.066 360.617C299.801 360.87 298.536 360.047 298.22 358.779L296.006 349.654C295.943 349.274 295.943 348.894 296.006 348.514L298.157 339.389C298.473 338.121 299.675 337.298 300.94 337.488L302.078 337.678L302.395 336.347L300.75 329.123C300.56 328.363 300.813 327.476 301.319 326.905L305.62 322.216L306.19 319.808L304.545 318.731C303.66 318.161 303.28 317.083 303.533 316.07L303.723 315.373C288.416 327.159 269.631 333.622 250.149 333.622C201.636 333.622 162.167 294.081 162.167 245.478C162.167 196.875 201.636 157.334 250.149 157.334C260.839 157.334 271.338 159.235 281.269 163.037C281.585 163.164 287.467 164.748 290.756 165.191C300.877 166.522 310.111 164.177 316.753 158.664C322.129 154.165 325.355 147.955 325.734 141.048C326.557 127.931 318.334 117.095 303.786 111.836L302.521 111.329C284.621 104.422 266.974 101 250.212 101C170.706 101 106 165.825 106 245.478C106 284.576 122.003 322.66 149.896 349.971C176.335 375.889 210.744 390.02 246.987 390.02C248.062 390.02 249.137 390.02 250.276 389.956C272.414 389.449 290.756 384.823 305.431 379.057L306.253 378.36Z" fill="#757679"/>
<path d="M337.183 299.807C337.183 298.856 337.942 298.096 338.891 298.096C339.839 298.096 340.598 298.856 340.598 299.807C340.598 300.757 339.839 301.518 338.891 301.518C338.005 301.518 337.183 300.757 337.183 299.807Z" fill="#0A169A"/>
<path d="M363.812 299.807C363.812 298.856 364.571 298.096 365.519 298.096C366.468 298.096 367.227 298.856 367.227 299.807C367.227 300.757 366.468 301.518 365.519 301.518C364.571 301.518 363.812 300.757 363.812 299.807Z" fill="#0A169A"/>
<path d="M350.529 298.096C350.529 297.146 351.288 296.385 352.237 296.385C353.185 296.385 353.944 297.146 353.944 298.096C353.944 299.047 353.185 299.807 352.237 299.807C351.288 299.807 350.529 299.047 350.529 298.096Z" fill="#0A169A"/>
<path d="M352.173 407.024L357.107 404.997L355.209 383.642C354.197 383.705 353.185 383.769 352.173 383.769C351.161 383.769 350.149 383.705 349.137 383.642L347.303 404.997L352.173 407.024ZM358.245 383.325L361.155 399.864L365.266 398.09L361.155 382.691C360.206 382.881 359.194 383.135 358.245 383.325ZM364.128 381.741L370.01 398.28L372.603 398.406L374.311 396.695L366.848 380.6C365.899 380.98 365.013 381.361 364.128 381.741ZM369.694 379.079L377.537 393.02L381.712 391.373L372.161 377.495C371.338 378.065 370.516 378.572 369.694 379.079ZM374.501 375.657L388.163 392.07L392.844 390.105L394.172 384.402L378.675 371.412C377.347 372.996 375.956 374.39 374.501 375.657ZM380.51 369.067L392.274 377.305L393.286 372.869L382.154 366.469C381.648 367.356 381.079 368.243 380.51 369.067ZM383.609 363.744L396.323 369.638L397.714 368.053L397.208 365.582L384.748 361.02C384.431 361.907 383.989 362.857 383.609 363.744ZM385.696 358.041L396.133 360.829L397.018 356.901L386.329 355C386.139 356.077 385.949 357.027 385.696 358.041ZM386.708 352.085L401.383 353.352L402.458 348.98L401.383 344.671L386.645 345.938C386.708 346.952 386.772 347.966 386.772 348.916C386.835 350.057 386.772 351.071 386.708 352.085ZM386.329 343.023L397.018 341.122L396.133 337.193L385.696 339.982C385.949 340.995 386.139 342.009 386.329 343.023ZM384.748 337.067L397.208 332.504L397.777 330.033L396.323 328.385L383.672 334.342C384.052 335.292 384.431 336.179 384.748 337.067ZM382.218 331.617L393.286 325.217L392.338 320.781L380.573 329.019C381.142 329.906 381.712 330.73 382.218 331.617ZM378.739 326.611L394.235 313.621L392.844 307.791L388.163 305.89L374.627 322.492C376.082 323.696 377.474 325.09 378.739 326.611ZM372.161 320.528L381.585 306.65L377.474 305.003L369.694 318.943C370.516 319.45 371.338 319.957 372.161 320.528ZM366.911 317.486L370.959 308.615C369.82 308.044 368.619 307.537 367.417 307.094L364.064 316.345C365.077 316.662 366.025 317.042 366.911 317.486ZM372.414 305.51L376.209 297.145L379.118 302.088L383.609 303.925L385.507 301.201L395.753 305.383L398.473 316.536L395.374 318.563L396.512 323.316L401.256 328.512L399.485 336.306L400.434 340.425L403.849 339.855L406 348.98L403.786 358.105L400.434 357.471L399.485 361.653L401.319 369.321L396.449 374.644L395.374 379.396L398.283 381.424L395.943 392.513L385.57 396.759L383.672 393.971L379.118 395.745L373.932 401.575L366.089 401.195L361.724 403.096L362.293 406.454L352.173 410.7L342.053 406.454L342.622 403.096L338.258 401.195L330.415 401.575L325.228 395.745L320.674 393.971L318.777 396.759L308.404 392.513L306.063 381.424L308.973 379.396L307.961 374.644L303.09 369.384L304.925 361.717L303.976 357.534L300.624 358.168L298.41 349.043L300.56 339.918L303.976 340.488L304.925 336.37L303.154 328.575L307.898 323.379L309.036 318.627L305.937 316.599L308.657 305.446L318.903 301.264L320.801 303.989L325.292 302.151L328.201 297.208L331.996 305.573C338.132 302.658 344.963 301.074 352.11 301.074C359.384 301.01 366.215 302.658 372.414 305.51ZM333.388 308.488L337.499 317.423C338.385 316.979 339.333 316.599 340.282 316.219L336.93 306.967C335.728 307.474 334.526 307.981 333.388 308.488ZM343.128 315.395C344.14 315.141 345.089 314.888 346.101 314.761L344.393 305.066C343.128 305.319 341.863 305.573 340.598 305.89L343.128 315.395ZM349.137 314.318C350.149 314.254 351.161 314.191 352.173 314.191C353.185 314.191 354.197 314.254 355.209 314.318L356.032 304.496C354.767 304.369 353.438 304.306 352.11 304.306C350.845 304.306 349.517 304.369 348.252 304.496L349.137 314.318ZM358.245 314.698C359.257 314.888 360.269 315.078 361.218 315.332L363.748 305.826C362.483 305.446 361.281 305.193 359.953 304.939L358.245 314.698ZM334.716 318.943L326.936 305.066L322.825 306.714L332.249 320.591C333.008 319.957 333.83 319.45 334.716 318.943ZM329.782 322.429L316.247 305.826L311.566 307.727L310.175 313.557L325.671 326.548C326.936 325.09 328.264 323.696 329.782 322.429ZM323.774 329.019L312.072 320.781L311.123 325.217L322.192 331.617C322.635 330.73 323.204 329.843 323.774 329.019ZM320.737 334.342L308.151 328.385L306.696 330.033L307.265 332.504L319.662 337.067C319.915 336.179 320.295 335.229 320.737 334.342ZM318.713 339.982L308.277 337.193L307.391 341.122L318.081 343.023C318.207 342.009 318.397 340.995 318.713 339.982ZM317.638 346.001L302.964 344.734L301.889 349.043L302.964 353.415L317.638 352.148C317.575 351.134 317.512 350.12 317.512 349.043C317.512 347.966 317.575 347.015 317.638 346.001ZM318.018 355.063L307.328 356.964L308.214 360.893L318.65 358.105C318.46 357.091 318.207 356.077 318.018 355.063ZM319.599 360.956L307.202 365.519L306.696 367.99L308.087 369.574L320.737 363.744C320.358 362.857 319.978 361.907 319.599 360.956ZM322.192 366.469L311.123 372.933L312.135 377.368L323.837 369.131C323.268 368.243 322.698 367.356 322.192 366.469ZM325.734 371.539L310.238 384.466L311.566 390.169L316.247 392.133L329.909 375.721C328.391 374.453 326.999 372.996 325.734 371.539ZM332.249 377.495L322.698 391.309L326.873 392.957L334.653 379.079C333.83 378.572 333.008 378.065 332.249 377.495ZM337.562 380.6L330.099 396.695L331.806 398.406L334.4 398.28L340.282 381.741C339.397 381.424 338.448 380.98 337.562 380.6ZM343.255 382.691L339.144 398.026L343.255 399.801L346.164 383.262C345.152 383.135 344.204 382.945 343.255 382.691ZM320.674 348.98C320.674 366.469 334.779 380.663 352.237 380.663C369.631 380.663 383.799 366.469 383.799 348.98C383.799 331.49 369.694 317.296 352.237 317.296C334.779 317.296 320.674 331.49 320.674 348.98Z" fill="#0A169A"/>
<path d="M352.173 324.901C338.954 324.901 328.201 335.674 328.201 348.981C328.201 362.288 338.891 373.061 352.173 373.061C365.393 373.061 376.145 362.288 376.145 348.981C376.145 335.737 365.456 324.901 352.173 324.901ZM373.236 347.27H368.745C368.682 346.763 368.176 340.933 363.432 336.561L366.531 333.456C370.263 336.941 372.73 341.757 373.236 347.27ZM353.944 327.88C357.676 328.196 361.155 329.464 364.064 331.492L360.902 334.66C359.384 333.709 357.55 332.949 355.399 332.442V335.547C356.601 335.991 357.676 336.434 358.562 337.005L355.02 340.553L357.17 342.708L361.092 338.779C362.04 339.603 362.799 340.49 363.369 341.314L357.739 346.953C357.107 345.179 355.652 343.785 353.881 343.215V327.88H353.944ZM353.944 356.902V354.811C354.387 354.684 354.83 354.494 355.209 354.241L357.866 356.902H353.944ZM357.803 359.88L355.083 362.605C354.703 361.845 354.387 360.958 354.134 359.88H357.803ZM353.944 346.51C354.261 346.7 354.514 346.953 354.64 347.27C355.02 347.777 355.209 348.411 355.209 349.108C355.209 349.741 355.02 350.375 354.64 350.882C354.45 351.199 354.134 351.452 353.818 351.706C353.312 352.023 352.743 352.276 352.047 352.276C351.414 352.276 350.782 352.086 350.276 351.706C349.959 351.516 349.706 351.199 349.453 350.882C349.137 350.375 348.884 349.805 348.884 349.108C348.884 348.411 349.074 347.777 349.453 347.27C349.643 346.953 349.896 346.7 350.212 346.51C350.718 346.193 351.288 345.939 351.984 345.939C352.869 345.939 353.438 346.13 353.944 346.51ZM350.465 354.748V357.409C350.402 359.437 350.023 361.021 349.453 362.288V354.367C349.77 354.494 350.086 354.621 350.465 354.748ZM344.899 329.084C346.67 328.45 348.505 328.006 350.402 327.816V341.504C349.453 340.426 349.39 338.589 349.39 338.589V330.985H346.291V334.85H344.836V329.084H344.899ZM340.409 331.428C340.851 331.111 341.357 330.795 341.863 330.541V334.913H340.409V331.428ZM332.755 357.219C331.933 355.191 331.364 353.1 331.237 350.819H332.755V357.219ZM337.373 364.063C336.803 363.492 336.234 362.859 335.728 362.225V350.819H337.373V364.063ZM337.373 338.652C337.373 338.652 337.309 342.137 334.779 342.454V347.27H331.174C331.617 342.074 333.894 337.448 337.309 334.026V338.652H337.373ZM341.863 366.344C341.294 366.344 340.725 366.28 340.282 366.217V350.819H341.863V366.344ZM343.381 342.454C342.559 342.454 341.863 343.151 341.863 343.975V347.207H337.752V343.975C337.752 343.975 340.662 341.757 340.345 337.828H343.318H346.291C346.038 341.44 348.441 343.658 348.821 343.975C347.619 344.735 346.797 345.876 346.354 347.27H344.773V344.038C344.899 343.151 344.204 342.454 343.381 342.454ZM344.899 350.819H346.481V365.393C345.975 365.647 345.405 365.837 344.899 366.027V350.819ZM352.173 370.209C349.833 370.209 347.619 369.829 345.469 369.132C349.706 367.865 352.173 364.253 352.173 364.253C352.173 364.253 354.64 367.928 358.878 369.132C356.791 369.829 354.514 370.209 352.173 370.209ZM359.953 366.09C358.941 365.9 357.992 365.52 357.107 364.886L359.953 362.035V366.09ZM359.953 354.684L357.297 352.023C357.55 351.643 357.739 351.199 357.866 350.755H359.953V354.684ZM364.823 344.038C365.456 345.749 365.456 347.017 365.456 347.207H361.661L364.823 344.038ZM366.848 350.819L362.926 354.748V350.819H366.848ZM364.634 366.154C364.191 366.217 363.558 366.344 362.926 366.344V361.971L366.025 365.076C365.519 365.457 365.076 365.773 364.634 366.154ZM368.113 362.922L365.14 359.944H370.326C369.631 360.958 368.935 361.971 368.113 362.922ZM371.781 356.839H365.076L371.085 350.819H373.173C373.046 352.91 372.54 354.938 371.781 356.839Z" fill="#0A169A"/>
<path d="M375.45 266.286C373.173 266.286 371.022 266.92 369.125 267.934C366.784 266.476 364.001 265.653 361.029 265.653C357.55 265.526 354.008 267.3 354.008 267.3V265.336H357.17V262.041H354.008V258.872H352.237H350.402V262.041H347.24V265.336H350.402V267.3C350.402 267.3 346.86 265.526 343.382 265.653C340.409 265.653 337.626 266.476 335.285 267.934C333.451 266.857 331.301 266.286 328.96 266.286C321.876 266.286 316.12 272.053 316.12 279.213C316.12 284.853 319.789 289.669 324.849 291.38C325.671 294.612 328.644 297.02 332.123 297.02C335.032 297.02 337.499 295.372 338.764 292.964C340.029 295.372 342.496 297.02 345.406 297.02C348.442 297.02 351.035 295.182 352.237 292.584C353.438 295.182 356.032 297.02 359.068 297.02C361.977 297.02 364.444 295.372 365.709 292.964C366.974 295.372 369.441 297.02 372.351 297.02C375.893 297.02 378.802 294.612 379.624 291.38C384.684 289.669 388.353 284.853 388.353 279.15C388.29 272.053 382.534 266.286 375.45 266.286ZM325.545 288.085C324.659 288.085 323.963 287.388 323.963 286.501C323.963 285.613 324.659 284.916 325.545 284.916C326.43 284.916 327.126 285.613 327.126 286.501C327.189 287.388 326.43 288.085 325.545 288.085ZM325.545 281.558C323.584 281.558 321.939 282.699 321.18 284.346C320.232 282.889 319.662 281.114 319.662 279.213C319.662 274.017 323.837 269.772 329.024 269.772C330.162 269.772 331.301 269.962 332.313 270.342C329.466 273.257 327.695 277.186 327.695 281.558C327.632 281.558 325.545 281.558 325.545 281.558ZM332.123 294.105C330.542 294.105 329.15 293.281 328.328 292.077C328.075 291.697 327.885 291.253 327.695 290.746C329.277 289.922 330.352 288.275 330.352 286.374C330.352 285.994 330.289 285.677 330.225 285.297C330.795 285.043 331.427 284.916 332.06 284.916C332.755 284.916 333.451 285.106 334.084 285.36C334.02 285.677 334.02 285.994 334.02 286.31C334.02 288.148 335.032 289.732 336.55 290.556C335.981 292.647 334.21 294.105 332.123 294.105ZM338.827 288.085C337.942 288.085 337.246 287.388 337.246 286.501C337.246 285.613 337.942 284.916 338.827 284.916C339.713 284.916 340.409 285.613 340.409 286.501C340.409 287.388 339.713 288.085 338.827 288.085ZM338.574 281.558C338.574 278.96 340.662 276.742 343.318 276.742V281.558H338.574ZM345.342 294.105C343.255 294.105 341.484 292.711 340.978 290.746C342.559 289.922 343.698 288.275 343.698 286.374C343.698 285.994 343.635 285.677 343.571 285.297C344.141 285.043 344.773 284.916 345.406 284.916C346.165 284.916 346.86 285.106 347.493 285.423C347.43 285.74 347.43 286.057 347.366 286.437C347.366 288.275 348.378 289.859 349.833 290.683C349.264 292.647 347.493 294.105 345.342 294.105ZM350.402 281.558H347.43V274.081C347.43 274.081 345.469 272.877 343.065 272.877C338.195 272.686 334.779 276.932 334.779 281.558H331.49C331.49 274.968 336.803 269.455 343.382 269.455C347.24 269.391 350.402 271.736 350.402 271.736V281.558ZM352.173 288.085C351.288 288.085 350.592 287.388 350.592 286.501C350.592 285.613 351.288 284.916 352.173 284.916C353.059 284.916 353.755 285.613 353.755 286.501C353.755 287.388 353.059 288.085 352.173 288.085ZM354.008 271.799C354.008 271.799 357.17 269.455 361.029 269.518C367.607 269.518 372.92 274.968 372.92 281.621H369.631C369.631 276.995 366.215 272.813 361.345 272.94C358.878 272.94 356.981 274.144 356.981 274.144V281.621H354.071V271.799H354.008ZM361.092 276.805C363.685 276.805 365.836 278.96 365.836 281.621H361.092V276.805ZM359.005 294.105C356.854 294.105 355.02 292.584 354.577 290.556C356.032 289.732 356.981 288.148 356.981 286.374C356.981 286.057 356.981 285.74 356.917 285.423C357.55 285.106 358.309 284.916 359.068 284.916C359.7 284.916 360.333 285.043 360.902 285.297C360.839 285.677 360.776 285.994 360.776 286.374C360.776 288.275 361.851 289.922 363.495 290.746C362.863 292.711 361.092 294.105 359.005 294.105ZM365.583 288.085C364.697 288.085 364.001 287.388 364.001 286.501C364.001 285.613 364.697 284.916 365.583 284.916C366.468 284.916 367.164 285.613 367.164 286.501C367.164 287.388 366.468 288.085 365.583 288.085ZM376.082 292.14C375.26 293.344 373.869 294.168 372.287 294.168C370.2 294.168 368.366 292.711 367.86 290.746C369.378 289.922 370.39 288.275 370.39 286.501C370.39 286.184 370.39 285.867 370.326 285.487C370.896 285.17 371.592 285.043 372.351 285.043C372.983 285.043 373.616 285.17 374.185 285.423C374.122 285.804 374.058 286.12 374.058 286.501C374.058 288.402 375.134 290.049 376.715 290.873C376.525 291.253 376.335 291.697 376.082 292.14ZM378.929 288.085C378.043 288.085 377.347 287.388 377.347 286.501C377.347 285.613 378.043 284.916 378.929 284.916C379.814 284.916 380.51 285.613 380.51 286.501C380.51 287.388 379.814 288.085 378.929 288.085ZM383.293 284.346C382.471 282.699 380.826 281.558 378.865 281.558H376.778C376.778 277.186 375.07 273.257 372.224 270.342C373.236 269.962 374.311 269.772 375.513 269.772C380.7 269.772 384.874 274.017 384.874 279.213C384.811 281.114 384.242 282.889 383.293 284.346Z" fill="#0A169A"/>
</svg>
