<svg width="512" height="512" viewBox="0 0 512 512" fill="none" xmlns="http://www.w3.org/2000/svg">
<rect width="512" height="512" rx="120" fill="white"/>
<path d="M384.267 138.403L381.054 135.371C372.81 127.608 360.081 127.73 352.079 135.735C346.624 141.193 339.471 148.167 330.257 157.203L329.408 157.991C320.194 166.966 309.95 177.033 299.887 186.858L296.069 190.557C295.644 190.982 295.22 191.406 294.796 191.831L291.037 195.469C271.215 214.815 253.879 231.795 241.452 244.106C240.422 245.137 239.088 245.683 237.633 245.622C236.179 245.622 234.845 244.955 233.814 243.924C231.572 241.498 229.814 239.618 228.116 237.738C226.48 235.919 224.722 233.978 222.54 231.674C218.721 227.55 213.508 225.185 207.87 225.003C202.233 224.821 196.959 226.883 192.837 230.764L192.655 230.946C188.594 234.827 186.29 240.043 186.23 245.683C186.169 251.323 188.291 256.659 192.231 260.662C199.202 267.697 204.476 273.094 209.689 278.491C214.72 283.646 219.751 288.74 226.177 295.29C230.056 299.232 235.269 301.476 240.846 301.476C240.907 301.476 240.967 301.476 240.967 301.476C246.484 301.476 251.636 299.353 255.576 295.472L384.388 168.422C388.45 164.419 390.632 159.083 390.571 153.382C390.692 147.621 388.389 142.284 384.267 138.403Z" fill="#FFC500"/>
<path d="M301.342 347.932C305.646 339.078 312.86 332.103 321.649 328.04H296.493L296.857 331.74C296.796 331.74 297.826 339.927 301.342 347.932Z" fill="#757679"/>
<path d="M280.611 386.449C267.639 373.774 259.152 357.279 256.243 339.571C250.06 340.905 243.756 341.572 237.33 341.572C187.563 341.572 147.131 301.062 147.131 251.334C147.131 201.545 187.624 161.095 237.33 161.095C248.302 161.095 259.092 163.035 269.276 166.917C269.518 167.038 275.459 168.615 278.55 169.039C288.37 170.313 297.341 168.069 303.827 162.732C308.98 158.487 312.011 152.483 312.435 145.934C313.223 133.138 304.979 122.525 290.31 117.491C290.189 117.37 290.007 117.31 289.825 117.249C271.761 110.457 254.061 107 237.33 107C198.777 107 162.528 122.04 135.25 149.269C107.973 176.559 93 212.824 93 251.394C93 271.346 97.0008 290.692 104.82 308.946C112.398 326.654 123.187 342.421 136.948 355.824C163.437 381.719 197.808 395.849 234.117 395.849C235.209 395.849 236.3 395.849 237.391 395.788C254.788 395.364 269.821 392.453 282.611 388.45C281.945 387.723 281.278 387.116 280.611 386.449Z" fill="#757679"/>
<path d="M339.652 384.138C349.29 384.138 357.11 376.315 357.11 366.672C357.11 357.03 349.29 349.207 339.652 349.207C330.014 349.207 322.194 357.03 322.194 366.672C322.194 376.315 330.014 384.138 339.652 384.138ZM339.652 356.969C345.047 356.969 349.411 361.336 349.411 366.733C349.411 372.13 345.047 376.497 339.652 376.497C334.257 376.497 329.893 372.13 329.893 366.733C329.893 361.336 334.257 356.969 339.652 356.969Z" fill="#003E6F"/>
<path d="M300.918 322.539H378.993V315.868V314.837V303.739C378.993 302.83 378.872 294.582 373.72 289.367C371.113 286.759 367.597 285.364 363.596 285.364H363.293C359.474 285.364 356.14 286.638 353.534 289.063C352.625 286.577 351.291 284.151 349.412 282.21C346.927 279.724 343.714 278.39 340.137 278.39H339.834C336.258 278.39 333.045 279.724 330.56 282.21C328.62 284.151 327.347 286.577 326.438 289.063C323.892 286.638 320.497 285.364 316.679 285.364H316.315C312.314 285.364 308.798 286.759 306.192 289.367C300.979 294.582 300.918 302.83 300.918 303.739V315.868H300.979V322.539H300.918ZM363.233 293.066H363.536C371.052 293.066 371.295 302.648 371.295 303.8V314.898H355.534V303.8C355.534 302.284 356.08 297.432 358.565 294.885C359.717 293.612 361.293 293.066 363.233 293.066ZM332.015 300.586C332.015 298.281 332.682 290.883 335.894 287.608C336.925 286.516 338.198 286.031 339.713 286.031H340.016C341.229 286.031 344.441 286.031 346.502 292.399C347.775 296.341 347.775 300.525 347.775 300.586V303.739V314.837H332.015V303.739V300.586ZM316.315 293.066H316.618C324.134 293.066 324.377 302.648 324.377 303.8V314.898H308.616V303.8C308.556 302.648 308.798 293.066 316.315 293.066Z" fill="#003E6F"/>
<path d="M387.903 328.71L387.54 332.106C387.54 332.288 385.479 349.571 376.447 360.063C373.294 342.597 358.019 329.255 339.652 329.255C321.163 329.255 305.767 342.779 302.796 360.427C293.522 349.996 291.4 332.288 291.4 332.045L291.037 328.649H260.546L260.97 333.44C262.728 351.936 271.093 369.341 284.429 382.44C299.281 396.995 318.921 405 339.773 405C380.75 405 414.636 374.253 418.576 333.44L419 328.649H387.903V328.71ZM339.652 337.018C356.018 337.018 369.354 350.36 369.354 366.734C369.354 367.037 369.354 367.401 369.354 367.704C368.809 383.775 355.776 396.389 339.652 396.389C323.285 396.389 309.949 383.047 309.949 366.673C309.949 350.36 323.285 337.018 339.652 337.018ZM268.972 336.411H284.247C285.581 343.871 290.067 361.639 302.433 370.494C303.221 378.68 306.676 386.079 311.95 391.84C303.766 388.384 296.25 383.411 289.703 377.043C278.489 366.066 271.215 351.754 268.972 336.411ZM367.415 391.84C372.688 386.018 376.083 378.499 376.871 370.19C388.934 361.215 393.298 343.81 394.632 336.472H410.332C406.634 361.761 389.964 382.38 367.415 391.84Z" fill="#003E6F"/>
</svg>
