<svg width="512" height="512" viewBox="0 0 512 512" fill="none" xmlns="http://www.w3.org/2000/svg">
<rect width="512" height="512" rx="120" fill="white"/>
<g clip-path="url(#clip0_1101_3)">
<path d="M351.943 281.197H349.494C347.316 281.197 345.275 281.606 343.233 282.559C332.482 287.462 295.738 304.488 287.981 308.029C287.301 308.301 287.165 308.71 287.165 309.391C287.165 314.703 287.165 320.014 287.165 325.326C287.165 325.599 287.165 325.871 287.165 326.28H303.767V333.635H307.442V381.986H303.767V389.477H290.975V393.018H410.053V389.341H397.261V381.986H393.587V333.635H397.397V326.28H413.864V308.165C412.231 307.484 369.635 287.871 357.931 282.559C356.162 281.606 353.985 281.197 351.943 281.197ZM343.097 286.781C345.955 285.419 348.813 284.466 351.943 284.875C353.032 285.011 354.121 285.011 355.073 285.419C370.86 292.638 402.841 307.348 403.249 307.62C368.138 307.62 333.163 307.62 298.188 307.62V307.484C303.495 305.032 336.021 290.187 343.097 286.781ZM329.761 329.957C322.412 329.957 315.063 329.957 307.578 329.957C307.578 328.867 307.578 327.642 307.578 326.416C314.927 326.416 322.276 326.416 329.761 326.416C329.761 327.642 329.761 328.731 329.761 329.957ZM329.761 389.341C322.276 389.341 314.927 389.341 307.578 389.341C307.578 388.115 307.578 386.889 307.578 385.663C310.708 385.663 313.702 385.663 316.696 385.663C316.696 384.437 316.696 383.212 316.696 381.85C314.791 381.85 313.022 381.85 311.116 381.85C311.116 367.685 311.116 348.072 311.116 333.498C316.016 333.498 321.051 333.498 325.95 333.498C325.95 348.208 325.95 367.685 325.95 381.85C324.045 381.85 322.276 381.85 320.506 381.85C320.506 383.075 320.506 384.301 320.506 385.527C323.637 385.527 326.631 385.527 329.624 385.527C329.761 387.025 329.761 388.251 329.761 389.341ZM367.866 326.28C367.866 328.731 367.866 331.183 367.866 333.498C369.09 333.498 370.315 333.498 371.54 333.498C371.54 348.208 371.54 367.685 371.54 381.986C370.315 381.986 369.09 381.986 367.866 381.986C367.866 384.574 367.866 386.889 367.866 389.341C364.055 389.341 337.518 389.341 333.707 389.341C333.707 386.889 333.707 384.437 333.707 381.986C332.346 381.986 331.258 381.986 330.033 381.986C330.033 367.821 330.033 348.344 330.033 333.635C331.258 333.635 332.482 333.635 333.843 333.635C333.843 331.183 333.843 328.731 333.843 326.416C337.518 326.416 364.055 326.28 367.866 326.28ZM393.723 329.957C386.374 329.957 379.025 329.957 371.676 329.957C371.676 328.867 371.676 327.642 371.676 326.416C379.025 326.416 386.374 326.416 393.723 326.416C393.723 327.506 393.723 328.731 393.723 329.957ZM393.723 385.799C393.723 387.161 393.723 388.251 393.723 389.477C386.238 389.477 379.025 389.477 371.676 389.477C371.676 388.251 371.676 387.025 371.676 385.799C374.806 385.799 377.8 385.799 380.794 385.799C380.794 384.574 380.794 383.348 380.794 382.122C378.889 382.122 377.12 382.122 375.351 382.122C375.351 367.957 375.351 348.344 375.351 333.771C380.25 333.771 385.285 333.771 390.184 333.771C390.184 348.48 390.184 367.957 390.184 382.258C388.279 382.258 386.51 382.258 384.741 382.258C384.741 383.484 384.741 384.71 384.741 385.936C387.735 385.799 390.729 385.799 393.723 385.799ZM410.326 322.466C391.137 322.466 309.619 322.602 291.247 322.602C291.247 318.925 291.247 315.247 291.247 311.434C330.849 311.434 370.587 311.434 410.326 311.434C410.326 315.111 410.326 318.789 410.326 322.466Z" fill="#33CAFF"/>
<path d="M287.437 396.968C287.437 400.645 287.437 404.323 287.437 408C322.548 408 409.237 408.136 414.136 408.136C414.136 404.459 414.136 400.645 414.136 396.968C393.587 396.832 305.537 396.968 287.437 396.968ZM410.326 404.323C407.604 404.323 404.882 404.323 402.16 404.323C367.321 404.323 325.95 404.323 291.247 404.323C291.247 402.961 291.247 401.871 291.247 400.645C308.258 400.645 391.137 400.645 410.326 400.645C410.326 401.871 410.326 403.097 410.326 404.323Z" fill="#33CAFF"/>
<path d="M391.681 136.961L388.415 133.828C380.114 126.064 367.321 126.201 359.292 134.237C353.032 140.502 345.139 148.129 336.565 156.573C326.903 166.107 316.152 176.595 305.264 187.082L303.087 189.262C280.36 211.599 261.852 229.713 248.379 243.061C247.426 244.014 246.065 244.695 244.568 244.559C243.071 244.559 241.711 243.878 240.758 242.788C238.444 240.337 236.811 238.43 235.042 236.523C233.409 234.616 231.64 232.846 229.463 230.394C225.652 226.308 220.345 223.857 214.765 223.72C209.049 223.584 203.742 225.627 199.795 229.441L199.523 229.713C195.44 233.663 193.127 238.839 192.991 244.559C192.854 250.28 195.032 255.591 198.978 259.541C205.919 266.624 211.227 271.935 216.398 277.383C221.433 282.559 226.605 287.735 233.001 294.409C236.947 298.358 242.119 300.538 247.699 300.674H247.835C253.414 300.674 258.586 298.495 262.532 294.681L391.817 167.061C395.9 162.975 398.078 157.663 398.078 151.943C398.078 146.222 395.764 140.91 391.681 136.961Z" fill="#33CAFF"/>
<path d="M298.732 114.896L297.507 114.351C279.135 107.541 261.171 104 244.296 104C163.595 104 98 169.649 98 250.416C98 290.05 114.195 328.595 142.501 356.244C169.311 382.53 204.15 396.832 241.03 396.832C242.119 396.832 243.208 396.832 244.296 396.832C257.089 396.559 268.52 394.925 278.727 392.473V332.817C267.84 337.312 256.136 339.763 244.16 339.763C195.032 339.763 155.022 299.72 155.022 250.552C155.022 201.384 195.032 161.34 244.16 161.34C255.047 161.34 265.662 163.247 275.733 167.061C276.005 167.197 281.993 168.832 285.395 169.24C295.602 170.602 304.992 168.151 311.797 162.566C317.24 158.072 320.506 151.67 320.915 144.724C321.731 131.24 313.43 120.208 298.732 114.896Z" fill="#757679"/>
</g>
<defs>
<clipPath id="clip0_1101_3">
<rect width="316" height="304" fill="white" transform="translate(98 104)"/>
</clipPath>
</defs>
</svg>
