<svg width="512" height="512" viewBox="0 0 512 512" fill="none" xmlns="http://www.w3.org/2000/svg">
<rect width="512" height="512" rx="120" fill="white"/>
<path d="M386.199 137.527L383.01 134.521C374.884 126.826 362.305 127.007 354.36 134.882C348.161 141.014 340.457 148.588 331.971 156.884C322.401 166.262 311.868 176.542 301.215 186.942L299.048 189.106C276.538 211.049 258.302 228.843 245.061 242.008C244.037 243.03 242.713 243.571 241.329 243.511C239.884 243.511 238.56 242.91 237.537 241.828C235.31 239.423 233.625 237.56 231.88 235.696C230.194 233.833 228.509 232.029 226.402 229.685C222.611 225.597 217.495 223.252 211.897 223.132C206.3 222.952 201.064 224.996 197.152 228.723L196.851 229.023C192.818 232.871 190.591 238.041 190.471 243.571C190.411 249.162 192.517 254.392 196.429 258.36C203.291 265.273 208.467 270.624 213.643 275.854C218.638 280.963 223.634 286.073 230.014 292.566C233.866 296.473 239.042 298.637 244.519 298.698C244.579 298.698 244.639 298.698 244.639 298.698C250.056 298.698 255.232 296.594 259.084 292.746L386.44 167.284C390.473 163.317 392.639 158.027 392.579 152.436C392.579 146.605 390.292 141.374 386.199 137.527Z" fill="#8A3032"/>
<path d="M299.289 345.403C297.002 344.682 293.993 344.201 290.622 343.96V345.584C291.886 345.884 293.21 346.365 294.233 347.026C294.354 347.086 294.534 347.207 294.655 347.267C295.377 347.808 295.678 348.108 296.34 355.082C296.821 356.525 296.159 358.508 290.622 362.055V384.058C293.632 382.976 296.521 381.894 299.289 380.691V345.403Z" fill="#76777A"/>
<path d="M271.302 386.943C271.302 385.801 272.265 384.839 273.409 384.839H273.649V377.445C273.529 377.565 273.409 377.685 273.288 377.806C272.446 378.527 271.242 378.467 270.459 377.746C269.858 377.144 269.677 376.243 269.978 375.521C269.858 375.281 269.617 374.92 269.256 374.68C268.353 374.018 267.39 373.237 267.089 372.035C267.089 371.974 267.029 371.854 267.029 371.794L265.825 365.362C265.464 364.28 265.103 361.875 273.71 358.388V354C270.459 353.459 268.473 352.317 267.691 350.633C267.631 350.573 267.631 350.513 267.631 350.453C264.982 344.321 264.621 343.299 264.621 342.818C264.2 339.692 267.45 336.686 273.77 334.462V330.434C263.478 334.582 252.403 336.747 241.088 336.747C192.637 336.747 153.215 297.371 153.215 248.977C153.215 200.584 192.637 161.208 241.088 161.208C251.801 161.208 262.274 163.132 272.205 166.859C272.506 166.979 278.404 168.603 281.715 169.023C291.826 170.346 301.035 168.001 307.715 162.471C313.072 158.022 316.322 151.77 316.683 144.917C317.466 131.872 309.28 121.051 294.715 115.761L293.511 115.22C275.455 108.427 257.82 105 241.088 105C161.641 105 97 169.564 97 248.917C97 287.872 113.01 325.805 140.876 352.978C167.299 378.768 201.666 392.835 237.898 392.835C238.982 392.835 240.065 392.835 241.148 392.774C252.163 392.534 262.274 391.272 271.422 389.348V386.943H271.302Z" fill="#76777A"/>
<path d="M299.289 333.136V314.68C296.521 317.145 293.632 319.369 290.622 321.413V332.114C293.812 332.174 296.761 332.535 299.289 333.136Z" fill="#76777A"/>
<path d="M291.766 395.434C290.803 394.893 289.659 394.652 288.275 394.652C286.891 394.652 285.627 394.893 284.724 395.434C283.279 396.215 280.932 396.275 279.367 395.434C278.645 395.073 277.441 394.712 275.997 394.712C274.612 394.712 273.469 394.953 272.506 395.494C271.784 395.915 270.821 396.095 269.858 396.095H268.895V400.002H269.858C271.122 400.002 272.385 399.702 273.409 399.161C274.733 398.439 277.261 398.439 278.464 399.161C279.488 399.702 280.691 400.002 282.015 400.002C283.64 400.002 284.904 399.521 285.566 399.221C286.83 398.5 289.418 398.5 290.803 399.221C291.826 399.762 293.03 400.063 294.354 400.063H295.317V396.095H294.354C293.451 396.095 292.488 395.854 291.766 395.434Z" fill="#8A3032"/>
<path d="M409.071 395.434C408.108 394.893 406.964 394.652 405.58 394.652C404.195 394.652 402.992 395.073 402.149 395.434C400.705 396.215 398.297 396.215 396.853 395.434C395.89 394.953 394.686 394.652 393.302 394.652C391.917 394.652 390.774 394.893 389.811 395.434C389.088 395.854 388.125 396.035 387.162 396.035H386.199V400.002H387.162C388.487 400.002 389.69 399.702 390.714 399.161C392.038 398.439 394.565 398.439 396.01 399.161C396.612 399.461 397.876 399.882 399.501 399.882C400.765 399.882 402.029 399.582 403.112 399.041C404.256 398.379 406.844 398.319 408.168 399.041C409.191 399.582 410.455 399.882 411.719 399.882H412.682V395.975H411.719C410.756 396.095 409.793 395.854 409.071 395.434Z" fill="#8A3032"/>
<path d="M414.969 342.649C415.39 340.424 411.478 337.779 405.76 336.036V319.624H393.001V334.112C387.764 334.112 383.25 334.773 380.361 335.856V308.864H340.758H301.275V335.916C298.447 334.834 293.812 334.172 288.516 334.172H288.455V319.624H275.696V335.976C269.978 337.719 266.126 340.364 266.547 342.589C266.547 342.889 269.436 349.562 269.436 349.562V349.502C269.918 350.884 272.446 351.786 275.696 352.087V359.722C270.821 361.585 267.39 363.689 267.751 364.711L269.015 371.264C269.075 371.745 269.617 372.226 270.399 372.827C271.663 373.728 272.446 375.412 271.904 376.133C272.927 375.231 273.589 373.909 273.589 372.466C273.589 370.903 272.867 369.52 271.723 368.619V368.559C272.867 367.837 274.251 367.176 275.696 366.635V384.73H288.455V360.804C292.247 358.459 294.655 356.355 294.233 355.453C294.233 355.453 293.632 349.021 293.27 348.72L293.331 348.841C293.331 348.961 293.331 349.021 293.27 349.141C293.27 349.021 293.27 348.901 293.27 348.841L293.21 348.72C292.428 348.059 290.682 347.458 288.516 347.097V341.567H288.576C293.872 341.807 298.507 342.649 301.336 343.791V354.491V381.724V381.784C301.336 381.844 301.336 381.904 301.336 381.964C301.336 382.686 301.396 383.407 301.456 384.068C301.516 384.429 301.576 384.79 301.637 385.15C301.697 385.511 301.757 385.812 301.877 386.172C303.201 391.763 306.813 396.452 311.868 399.037C320.415 403.366 330.587 406.011 340.939 406.011C351.291 406.011 361.282 403.366 369.768 399.037C373.139 397.294 375.908 394.589 377.773 391.342C378.014 390.922 378.195 390.501 378.435 390.14C378.556 389.96 378.616 389.779 378.736 389.539C379.82 387.134 380.422 384.489 380.422 381.664V354.491V343.911C383.25 342.829 387.825 341.987 393.061 341.747V347.278C390.894 347.638 389.209 348.239 388.427 348.901L388.366 349.021C388.306 349.081 388.306 349.201 388.306 349.321C388.306 349.201 388.306 349.141 388.366 349.021L388.427 348.901C388.065 349.201 387.524 355.634 387.524 355.634C387.102 356.475 389.39 358.579 393.061 360.864V384.91H405.821V366.755H405.881C407.325 367.296 408.77 368.017 409.974 368.739H409.913C408.71 369.641 408.048 371.023 408.048 372.586C408.048 374.089 408.71 375.412 409.733 376.253C409.131 375.532 409.974 373.849 411.237 372.947C412.02 372.406 412.501 371.865 412.622 371.384C412.622 371.384 412.622 371.384 412.622 371.444L413.886 364.891C414.247 363.869 410.816 361.705 405.821 359.902H405.76V352.267C408.95 351.906 411.659 351.065 412.08 349.682V349.742C412.08 349.622 414.969 342.949 414.969 342.649ZM269.135 370.843C269.075 370.963 269.075 371.083 269.015 371.204C269.015 371.083 269.075 371.023 269.135 370.843ZM270.881 369.22C271.061 369.1 271.182 368.979 271.362 368.919C271.182 369.039 271.001 369.1 270.881 369.22ZM280.571 324.494H283.64V334.413C282.798 334.533 281.895 334.593 281.052 334.773C280.872 334.773 280.752 334.834 280.571 334.834V324.494ZM272.566 345.594C273.469 345.053 274.552 344.572 275.696 344.152V345.835L272.566 345.594ZM280.571 379.981V364.891C281.715 364.411 282.798 363.93 283.64 363.569V379.981H280.571ZM283.64 356.355C283.159 356.595 282.677 356.836 282.136 357.076C281.594 357.317 281.052 357.557 280.571 357.798V342.709C281.173 342.588 281.775 342.468 282.437 342.348C282.858 342.288 283.219 342.228 283.64 342.168V356.355ZM374.583 386.894L365.495 377.816H375.546V381.784C375.546 383.527 375.185 385.211 374.583 386.894ZM349.365 389.238L357.189 381.423V395.19C354.06 393.687 351.411 391.523 349.365 389.238ZM314.878 395.19V356.115H319.753V396.633C319.332 396.693 318.97 396.753 318.549 396.813C317.285 396.332 316.081 395.791 314.878 395.19ZM316.984 336.517H327.397C327.758 342.108 329.383 344.933 330.887 346.376C329.864 347.819 329.082 349.442 328.721 351.245H324.688V346.436C324.688 345.113 323.605 344.031 322.281 344.031C320.957 344.031 319.873 345.113 319.873 346.436V351.245H313.012V346.917C314.517 345.654 316.563 342.829 316.984 336.517ZM340.818 346.135C344.971 346.135 348.342 349.502 348.342 353.65C348.342 357.798 344.971 361.164 340.818 361.164C336.665 361.164 333.295 357.798 333.295 353.65C333.295 349.562 336.665 346.135 340.818 346.135ZM367.963 351.305H357.912L366.398 343.31C367.602 346.736 367.903 349.802 367.963 351.305ZM352.976 356.115H357.189V369.52L349.846 362.186C351.411 360.503 352.495 358.459 352.976 356.115ZM343.166 365.853C344.069 365.673 344.971 365.372 345.814 365.012L353.759 372.947H343.166V365.853V365.853ZM324.628 356.115H328.721C328.901 357.016 329.142 357.858 329.503 358.639V391.823C328.059 393.026 326.434 394.108 324.628 395.01V356.115ZM334.318 364.23C335.522 364.952 336.846 365.553 338.291 365.853V379.74C337.568 381.303 336.304 383.888 334.318 386.593V364.23ZM343.166 377.816H353.879L346.356 385.391C344.851 383.107 343.828 381.063 343.226 379.74V377.816H343.166ZM365.616 372.947L375.486 363.088V372.947H365.616ZM362.065 369.701V356.175H375.546V356.235L362.065 369.701ZM375.546 351.305H372.838C372.657 347.999 371.394 337.178 363.028 329.664L368.805 323.532L365.254 320.225L359.115 326.778C356.226 325.035 352.796 323.652 348.583 322.931L347.74 327.68C350.87 328.221 353.518 329.183 355.745 330.445L348.101 338.621L351.652 341.927L359.777 333.21C361.703 334.894 363.148 336.757 364.291 338.681L352.555 349.682C351.11 345.534 347.559 342.348 343.166 341.506V313.733H375.546V351.305ZM338.351 313.733V341.567C336.966 341.867 335.642 342.408 334.439 343.13C333.656 342.589 332.151 340.244 332.151 334.112V331.708V327.62H327.276V331.708H324.568V322.69H319.693V331.708H316.984V327.62H312.109V331.708V334.112C312.109 340.484 310.424 342.769 309.702 343.19L307.956 343.61V351.305H306.09V313.733H338.351V313.733ZM306.572 385.15C306.512 384.91 306.451 384.67 306.391 384.429C306.331 384.129 306.271 383.888 306.271 383.588C306.211 383.046 306.151 382.505 306.151 382.024C306.151 381.904 306.151 381.784 306.151 381.664V356.175H310.003V391.763C308.377 389.9 307.174 387.675 306.572 385.15ZM325.049 399.037C333.415 395.671 338.351 388.156 340.758 383.467C343.166 388.156 348.221 395.671 356.648 399.097C351.532 400.54 346.235 401.322 340.939 401.322C335.642 401.262 330.225 400.48 325.049 399.037ZM367.542 394.829C366.097 395.551 364.592 396.212 363.088 396.873C362.727 396.813 362.365 396.753 362.004 396.693V381.243L371.995 391.222C370.792 392.725 369.287 393.927 367.542 394.829ZM400.885 324.494V334.834C400.765 334.834 400.645 334.773 400.524 334.773C399.621 334.593 398.719 334.533 397.876 334.413V324.494H400.885V324.494ZM400.885 379.981H397.816V363.509C398.598 363.869 399.682 364.35 400.885 364.831V379.981ZM399.501 357.076C398.959 356.836 398.418 356.535 397.876 356.295V342.168C398.297 342.228 398.719 342.288 399.14 342.348C399.742 342.468 400.344 342.588 400.945 342.709V357.738C400.464 357.497 399.982 357.317 399.501 357.076ZM405.76 344.091C406.964 344.572 408.048 345.053 409.011 345.594L405.76 345.775V344.091Z" fill="#8A3032"/>
<path d="M325.471 304.595C325.471 305.557 326.253 306.339 327.216 306.339C328.179 306.339 328.961 305.557 328.961 304.595C328.961 303.633 328.179 302.852 327.216 302.852C326.253 302.852 325.471 303.633 325.471 304.595Z" fill="#8A3032"/>
<path d="M354.36 302.852C353.397 302.852 352.615 303.633 352.615 304.595C352.615 305.557 353.397 306.339 354.36 306.339C355.323 306.339 356.106 305.557 356.106 304.595C356.106 303.633 355.323 302.852 354.36 302.852Z" fill="#8A3032"/>
<path d="M339.073 304.648C339.073 305.61 339.855 306.392 340.818 306.392C341.781 306.392 342.564 305.61 342.564 304.648C342.564 303.687 341.781 302.905 340.818 302.905C339.855 302.905 339.073 303.687 339.073 304.648Z" fill="#8A3032"/>
<path d="M312.651 296.175C313.554 299.602 316.683 302.007 320.295 302.007C323.123 302.007 325.651 300.564 327.096 298.159C328.54 300.564 331.068 302.007 333.897 302.007C336.846 302.007 339.494 300.384 340.879 297.799C342.263 300.384 344.911 302.007 347.86 302.007C350.689 302.007 353.217 300.564 354.661 298.159C356.106 300.564 358.634 302.007 361.463 302.007C365.074 302.007 368.143 299.602 369.106 296.175C374.463 294.312 378.014 289.262 378.014 283.551C378.014 276.157 371.995 270.145 364.652 270.145C362.365 270.145 360.199 270.746 358.212 271.828C355.685 270.326 352.856 269.544 349.907 269.544C346.957 269.484 343.948 270.626 342.985 271.107V269.724H346.235V265.937H342.985V262.751H338.832V265.937H335.582V269.785H338.832V271.167C337.809 270.746 334.86 269.544 331.911 269.604C328.961 269.604 326.072 270.386 323.605 271.889C321.619 270.807 319.452 270.205 317.165 270.205C309.822 270.205 303.803 276.217 303.803 283.611C303.683 289.262 307.294 294.312 312.651 296.175ZM369.467 291.005C369.467 291.787 368.866 292.388 368.083 292.388C367.301 292.388 366.699 291.787 366.699 291.005C366.699 290.224 367.301 289.623 368.083 289.623C368.866 289.623 369.467 290.224 369.467 291.005ZM359.657 290.945C359.657 290.645 359.657 290.344 359.597 290.104C360.62 289.623 361.944 289.623 362.967 290.044C362.907 290.404 362.907 290.705 362.907 291.005C362.907 292.929 363.93 294.612 365.555 295.574C365.435 295.935 365.254 296.296 365.014 296.656C364.231 297.859 362.847 298.58 361.342 298.58C359.416 298.58 357.671 297.318 357.129 295.454C358.694 294.432 359.657 292.749 359.657 290.945ZM361.643 274.654C362.606 274.353 363.569 274.173 364.532 274.173C369.708 274.173 373.861 278.381 373.861 283.551C373.861 285.234 373.44 286.857 372.537 288.3C371.574 286.677 369.889 285.715 368.023 285.715H366.097C366.037 281.567 364.472 277.66 361.643 274.654ZM354.481 289.623C355.263 289.623 355.865 290.224 355.865 291.005C355.865 291.787 355.263 292.388 354.481 292.388C353.698 292.388 353.097 291.787 353.097 291.005C353.036 290.224 353.698 289.623 354.481 289.623ZM358.814 285.715C358.754 283.25 357.731 280.846 355.986 279.163C354.36 277.6 352.254 276.818 350.087 276.878C347.559 276.878 345.573 278.081 345.513 278.081L345.393 278.141V285.655H342.865V276.037C343.406 275.676 346.235 273.812 349.606 273.812C349.666 273.812 349.726 273.812 349.786 273.812C356.286 273.812 361.583 279.102 361.703 285.655H358.814V285.715ZM345.874 290.945C345.874 290.645 345.874 290.404 345.814 290.104C346.897 289.623 348.101 289.503 349.305 289.983C349.245 290.284 349.245 290.585 349.184 290.885C349.184 292.809 350.208 294.552 351.893 295.454C351.291 297.257 349.606 298.52 347.68 298.52C345.694 298.52 343.948 297.197 343.406 295.274C344.971 294.312 345.874 292.689 345.874 290.945ZM354.421 285.715H350.087V281.327C352.434 281.447 354.3 283.431 354.421 285.715ZM339.374 291.005C339.374 290.224 339.976 289.623 340.758 289.623C341.541 289.623 342.142 290.224 342.142 291.005C342.142 291.787 341.541 292.388 340.758 292.388C339.976 292.388 339.374 291.787 339.374 291.005ZM328.54 291.005C328.54 291.787 327.938 292.388 327.156 292.388C326.373 292.388 325.772 291.787 325.772 291.005C325.772 290.224 326.373 289.623 327.156 289.623C327.938 289.623 328.54 290.224 328.54 291.005ZM318.73 290.945C318.73 290.645 318.73 290.344 318.669 289.983C319.693 289.563 321.017 289.563 322.04 290.044C321.98 290.284 321.98 290.585 321.98 290.885C321.98 292.749 322.943 294.432 324.508 295.334C323.966 297.197 322.221 298.46 320.295 298.46C318.85 298.46 317.466 297.738 316.623 296.476C316.382 296.175 316.262 295.815 316.081 295.394C317.706 294.552 318.73 292.869 318.73 290.945ZM336.064 278.141C336.003 278.081 334.017 276.938 331.489 276.938C331.369 276.938 331.309 276.938 331.188 276.938C329.082 276.938 327.096 277.72 325.591 279.223C323.846 280.906 322.822 283.25 322.762 285.775H319.873C319.994 279.223 325.29 273.933 331.79 273.933C335.221 273.872 338.17 275.796 338.712 276.157V285.775H336.184V278.261L336.064 278.141ZM331.489 281.327V285.775H327.156C327.276 283.371 329.142 281.447 331.489 281.327ZM332.272 290.945C332.272 290.645 332.272 290.344 332.212 289.983C333.355 289.563 334.559 289.623 335.642 290.104C335.582 290.404 335.582 290.705 335.582 290.945C335.582 292.749 336.545 294.432 338.05 295.394C337.508 297.257 335.763 298.58 333.837 298.58C331.911 298.58 330.225 297.318 329.624 295.514C331.249 294.612 332.272 292.869 332.272 290.945ZM307.715 283.551C307.715 278.381 311.928 274.173 317.044 274.173C318.007 274.173 319.031 274.353 319.933 274.654C317.105 277.66 315.48 281.567 315.419 285.715H313.493C311.628 285.715 309.882 286.737 308.979 288.3C308.197 286.857 307.715 285.234 307.715 283.551ZM314.998 291.005C314.998 291.787 314.396 292.388 313.614 292.388C312.831 292.388 312.229 291.787 312.229 291.005C312.229 290.224 312.831 289.623 313.614 289.623C314.336 289.623 314.998 290.224 314.998 291.005Z" fill="#8A3032"/>
<path d="M290.923 312.4H273.349V317.269H290.923V312.4Z" fill="#8A3032"/>
<path d="M290.923 386.943H273.349V391.813H290.923V386.943Z" fill="#8A3032"/>
<path d="M282.015 310.911C286.048 310.911 289.298 307.665 289.298 303.637C289.298 299.609 286.048 296.363 282.015 296.363C277.983 296.363 274.733 299.609 274.733 303.637C274.733 307.665 277.983 310.911 282.015 310.911ZM282.015 301.232C283.34 301.232 284.483 302.314 284.483 303.697C284.483 305.08 283.4 306.162 282.015 306.162C280.631 306.162 279.548 305.08 279.548 303.697C279.548 302.314 280.691 301.232 282.015 301.232Z" fill="#8A3032"/>
<path d="M408.228 312.4H390.653V317.269H408.228V312.4Z" fill="#8A3032"/>
<path d="M408.228 386.943H390.653V391.813H408.228V386.943Z" fill="#8A3032"/>
<path d="M399.32 310.911C403.353 310.911 406.603 307.665 406.603 303.637C406.603 299.609 403.353 296.363 399.32 296.363C395.288 296.363 392.038 299.609 392.038 303.637C392.038 307.665 395.288 310.911 399.32 310.911ZM399.32 301.232C400.644 301.232 401.788 302.314 401.788 303.697C401.788 305.08 400.705 306.162 399.32 306.162C397.936 306.162 396.913 305.08 396.913 303.697C396.913 302.314 397.936 301.232 399.32 301.232Z" fill="#8A3032"/>
<path d="M340.758 398.489C342.753 398.489 344.369 396.874 344.369 394.882C344.369 392.89 342.753 391.275 340.758 391.275C338.764 391.275 337.147 392.89 337.147 394.882C337.147 396.874 338.764 398.489 340.758 398.489Z" fill="#8A3032"/>
</svg>
