<svg width="512" height="512" viewBox="0 0 512 512" fill="none" xmlns="http://www.w3.org/2000/svg">
<rect width="512" height="512" rx="120" fill="white"/>
<g clip-path="url(#clip0_1101_3)">
<path d="M389.889 136.852L386.638 133.793C382.697 130.068 377.454 128.021 372.022 128.084C366.589 128.148 361.396 130.318 357.544 134.134C351.236 140.372 343.423 148.035 334.833 156.412C325.11 165.887 314.389 176.313 303.518 186.828L301.296 188.997C278.435 211.2 259.9 229.245 246.449 242.552C245.949 243.047 245.352 243.434 244.695 243.689C244.038 243.945 243.336 244.063 242.631 244.037C241.912 244.024 241.203 243.866 240.547 243.572C239.891 243.279 239.301 242.856 238.814 242.329C236.547 239.893 234.817 237.992 233.087 236.106C231.358 234.22 229.688 232.378 227.51 230.032C225.624 228.004 223.351 226.371 220.824 225.229C218.297 224.086 215.566 223.457 212.792 223.378C210.054 223.284 207.326 223.735 204.765 224.704C202.204 225.673 199.864 227.141 197.88 229.022L197.567 229.319C195.553 231.225 193.942 233.512 192.828 236.046C191.713 238.581 191.118 241.311 191.076 244.077C191.034 246.843 191.547 249.59 192.585 252.156C193.623 254.723 195.164 257.057 197.119 259.022C204.068 266.032 209.347 271.409 214.581 276.726C219.816 282.043 224.737 287.122 231.238 293.642C233.167 295.594 235.464 297.147 237.998 298.213C240.531 299.278 243.251 299.834 246.001 299.85H246.151C251.641 299.87 256.918 297.736 260.839 293.909L390.232 166.823C392.236 164.861 393.822 162.516 394.894 159.929C395.966 157.342 396.503 154.567 396.473 151.768C396.442 148.969 395.845 146.206 394.716 143.643C393.587 141.08 391.95 138.77 389.904 136.852H389.889Z" fill="#FFAA26"/>
<path d="M416 323.212H408.32V330.816H377.333V323.286H365.493V330.845H334.52V323.316H322.59V330.86H291.707V323.226H283.908V322.216C283.908 316.692 283.908 311.167 283.908 305.642C283.85 305.355 283.896 305.058 284.038 304.802C284.18 304.546 284.409 304.349 284.684 304.246C294.108 299.978 303.518 295.696 312.912 291.399C313.082 291.343 313.257 291.303 313.434 291.28L315.015 294.667L295.301 303.682V303.845H404.756C404.309 303.592 404.011 303.399 403.683 303.251C387.289 295.766 370.886 288.295 354.472 280.84C353.427 280.501 352.336 280.321 351.237 280.305C348.027 280.045 344.811 280.732 341.991 282.28C334.609 285.83 320.264 292.305 312.823 295.647C312.465 295.81 312.107 295.929 311.645 296.122L310.034 292.676L325.811 285.414C332.059 282.562 345.197 276.384 345.197 276.384H354.472C354.472 276.384 391.753 293.567 410.005 301.87C411.944 302.746 413.927 303.548 415.881 304.394L416 323.212ZM351.967 323.212V319.246H412.048V307.84H287.89V319.365H354.622V323.212H338.442V326.939H361.481V323.137L351.967 323.212ZM318.683 323.33H295.629V327.014H318.683V323.33ZM381.314 323.33V327.073H404.354V323.256L381.314 323.33Z" fill="#FFAA26"/>
<path d="M416 408H400.596V404.183H412.033V400.322H351.952V396.475H416V408Z" fill="#FFAA26"/>
<path d="M334.431 381.044H338.278V328.647H342.17V380.97H347.941V384.861H338.427V388.663H361.466V384.935H351.997V381.089H357.619V328.647H361.511V380.97H365.403V388.663H377.243V381.044H381.135V328.647H385.013V380.999H390.739V384.846H381.24V388.663H404.264V384.905H394.765V381.059H400.462V328.647H404.398V380.999H408.246V388.678H412.048V392.495H287.86V388.797H291.618V381.074H295.54V328.632H299.432V380.985H305.188V384.876H295.54V388.633H318.653V384.92H309.169V381.074H314.806V328.632H318.698V380.97H322.59V388.678H334.431V381.044Z" fill="#FFAA26"/>
<path d="M283.983 407.911V396.475H359.662V400.233H287.875V404.109H403.489V407.881L283.983 407.911Z" fill="#FFAA26"/>
<path d="M296.837 114.857L295.54 114.292C278.568 107.677 260.541 104.155 242.318 103.896C203.514 103.939 166.311 119.311 138.872 146.639C111.433 173.966 95.9987 211.018 95.9553 249.666C95.9904 269.305 99.9465 288.742 107.593 306.845C115.24 324.947 126.425 341.355 140.498 355.113C166.732 380.98 202.152 395.496 239.067 395.51H242.378C253.991 395.264 265.547 393.805 276.855 391.158V331.751C263.414 337.362 248.799 339.61 234.285 338.298C219.772 336.986 205.801 332.155 193.595 324.226C181.389 316.297 171.317 305.511 164.261 292.812C157.205 280.112 153.379 265.885 153.117 251.373C152.855 236.861 156.165 222.506 162.758 209.562C169.351 196.618 179.026 185.479 190.938 177.118C202.85 168.756 216.637 163.428 231.094 161.597C245.551 159.766 260.238 161.489 273.872 166.615C277.044 167.522 280.265 168.246 283.52 168.783C293.795 170.105 303.16 167.758 309.93 162.174C312.607 159.995 314.801 157.286 316.372 154.218C317.943 151.15 318.857 147.79 319.056 144.352C319.936 131.149 311.63 120.233 296.837 114.857Z" fill="#757679"/>
</g>
<defs>
<clipPath id="clip0_1101_3">
<rect width="320" height="304" fill="white" transform="translate(96 104)"/>
</clipPath>
</defs>
</svg>
