<svg width="512" height="512" viewBox="0 0 512 512" fill="none" xmlns="http://www.w3.org/2000/svg">
<rect width="512" height="512" rx="120" fill="white"/>
<path d="M319.88 342.44H315.493V347.994H319.88V342.44Z" fill="white"/>
<path d="M394.997 136.775L391.812 133.723C383.759 125.972 371.26 126.155 363.387 134.089C357.258 140.314 349.566 147.943 341.213 156.244C331.718 165.704 321.262 176.079 310.685 186.515L308.522 188.651C286.227 210.745 268.079 228.749 254.978 241.993C253.957 242.969 252.635 243.58 251.253 243.519C249.81 243.519 248.488 242.908 247.527 241.81C245.303 239.369 243.621 237.477 241.938 235.585C240.255 233.754 238.633 231.862 236.47 229.543C232.684 225.453 227.636 223.073 222.107 222.89C216.518 222.707 211.35 224.782 207.504 228.505L207.204 228.81C203.238 232.655 200.954 237.904 200.894 243.519C200.834 249.134 202.877 254.443 206.783 258.41C213.574 265.429 218.742 270.739 223.85 276.048C228.838 281.236 233.765 286.363 240.135 292.893C243.981 296.86 249.089 299.057 254.558 299.057C254.618 299.057 254.678 299.057 254.678 299.057C260.086 299.057 265.194 296.921 269.04 293.076L395.417 166.497C399.383 162.53 401.547 157.159 401.487 151.483C401.306 145.929 399.083 140.681 394.997 136.775Z" fill="#057450"/>
<path d="M335.143 305.703L352.751 329.444L357.618 323.28C356.476 319.252 354.493 315.712 351.609 312.782C347.402 308.51 341.573 305.886 335.203 305.275C335.203 305.397 335.203 305.52 335.143 305.703Z" fill="#757679"/>
<path d="M311.106 342.324C312.668 344.216 315.252 346.352 319.159 346.413L320.24 339.517L314.651 331.949L307.741 331.46C307.32 335 308.642 339.334 311.106 342.324Z" fill="#757679"/>
<path d="M332.018 355.446L327.391 349.16L326.85 352.7C326.73 353.615 326.009 354.347 325.048 354.531L323.545 354.775C322.283 354.958 321.021 355.08 319.759 355.08C314.772 355.08 307.741 353.493 302.933 345.803C297.465 337.137 298.967 329.263 300.349 325.419L300.89 323.893C301.251 322.977 302.092 322.367 303.053 322.428L305.097 322.55C304.916 321.94 304.856 321.329 304.916 320.658C305.097 319.498 305.637 318.461 306.539 317.79L307.741 316.813C307.62 316.691 307.56 316.569 307.44 316.508C291.696 330.179 271.684 337.747 250.832 337.747C202.757 337.747 163.636 298.015 163.636 249.19C163.636 200.365 202.757 160.634 250.832 160.634C261.469 160.634 271.865 162.526 281.66 166.309C281.96 166.432 287.85 168.079 291.095 168.446C301.13 169.727 310.265 167.408 316.875 161.854C322.223 157.338 325.408 151.052 325.769 144.155C326.55 130.972 318.437 120.109 304.015 114.799L302.813 114.25C284.905 107.414 267.418 103.935 250.832 103.935C171.989 103.935 107.869 169.056 107.869 249.129C107.869 288.433 123.734 326.7 151.377 354.103C177.578 380.103 211.651 394.323 247.647 394.323C248.729 394.323 249.81 394.323 250.892 394.262C276.071 393.652 296.323 387.732 311.767 380.652L332.018 355.446Z" fill="#757679"/>
<path d="M306.118 307.418C305.156 308.15 305.036 309.493 305.697 310.469C306.118 311.019 306.779 311.324 307.38 311.324C307.861 311.324 308.281 311.202 308.642 310.897L326.009 297.409C326.97 296.676 327.091 295.334 326.43 294.357C325.708 293.381 324.386 293.258 323.425 293.93L318.497 287.583L315.132 290.268L320.06 296.554L318.858 297.47L313.93 291.122L310.565 293.808L315.492 300.094L314.291 301.009L309.363 294.662L305.998 297.348L310.925 303.634L309.723 304.549L304.796 298.202L301.431 300.887L306.298 307.174L306.118 307.418Z" fill="#E7CA3C"/>
<path d="M326.67 298.196L309.243 311.745C308.281 312.477 308.161 313.82 308.822 314.796C309.243 315.345 309.904 315.651 310.505 315.651C310.985 315.651 311.406 315.529 311.767 315.223L329.194 301.674C330.155 300.942 330.276 299.599 329.615 298.623C328.893 297.646 327.571 297.463 326.67 298.196Z" fill="#E7CA3C"/>
<path d="M393.013 394.684L396.439 392.06L391.511 385.407L391.872 385.102C392.773 384.37 392.953 383.027 392.232 382.051C391.511 381.135 390.189 380.952 389.227 381.685L371.5 395.661C370.598 396.393 370.418 397.736 371.139 398.712C371.56 399.262 372.161 399.567 372.822 399.567C373.303 399.567 373.723 399.445 374.144 399.14L374.384 398.956L379.192 405.487L382.617 402.863L377.75 396.271L378.951 395.295L383.819 401.825L387.244 399.201L382.317 392.609L383.519 391.633L388.386 398.224L391.811 395.6L386.884 388.947L388.086 387.971L393.013 394.684Z" fill="#E7CA3C"/>
<path d="M388.386 381.261C389.288 380.528 389.468 379.186 388.747 378.209C388.026 377.294 386.704 377.111 385.742 377.843L368.495 391.453C367.594 392.185 367.413 393.528 368.135 394.505C368.555 395.054 369.156 395.359 369.817 395.359C370.298 395.359 370.719 395.237 371.139 394.932L388.386 381.261Z" fill="#E7CA3C"/>
<path d="M385.622 373.82C384.901 372.904 383.639 372.721 382.677 373.392L358.94 341.412L374.264 322.248L378.05 325.422C377.93 325.91 377.81 326.398 377.81 326.947C377.81 329.938 380.213 332.379 383.158 332.379C386.103 332.379 388.506 329.938 388.506 326.947C388.506 323.957 386.103 321.516 383.158 321.516C382.257 321.516 381.415 321.76 380.694 322.126L376.668 318.769C379.853 315.962 388.026 308.211 390.79 300.032C393.795 299.727 396.138 297.225 396.138 294.112C396.138 290.817 393.494 288.131 390.249 288.131C387.004 288.131 384.36 290.817 384.36 294.112C384.36 294.418 384.36 294.723 384.42 294.967C377.269 299.361 371.56 308.882 369.457 312.788L364.95 309.004C365.07 308.516 365.19 308.028 365.19 307.478C365.19 304.488 362.786 302.047 359.842 302.047C356.897 302.047 354.493 304.488 354.493 307.478C354.493 310.469 356.897 312.91 359.842 312.91C360.743 312.91 361.584 312.666 362.306 312.3L366.452 315.718L352.751 332.989L332.619 305.83C333.4 305.098 333.521 303.816 332.86 302.962C332.138 301.985 330.816 301.863 329.855 302.535L307.921 319.563C306.959 320.295 306.839 321.638 307.5 322.614C307.921 323.163 308.582 323.469 309.183 323.469C309.663 323.469 310.084 323.347 310.445 323.041L310.505 322.98L312.247 325.361L302.813 324.75L302.272 326.276C301.01 329.816 299.688 336.834 304.616 344.769C308.942 351.665 315.192 353.008 319.579 353.008C320.961 353.008 322.163 352.886 323.004 352.703L324.507 352.459L325.889 343.792L334.602 355.571L302.933 395.242L300.409 406.716L310.805 401.711L340.852 364.055L360.683 390.725L360.623 390.786C359.721 391.519 359.541 392.861 360.262 393.838C360.683 394.387 361.284 394.692 361.945 394.692C362.426 394.692 362.846 394.57 363.267 394.265L385.141 376.993C386.223 376.139 386.343 374.735 385.622 373.82ZM383.278 325.788C383.879 325.788 384.42 326.276 384.42 326.947C384.42 327.558 383.939 328.107 383.278 328.107C382.677 328.107 382.136 327.619 382.136 326.947C382.136 326.276 382.617 325.788 383.278 325.788ZM359.902 308.577C359.301 308.577 358.76 308.089 358.76 307.417C358.76 306.807 359.241 306.258 359.902 306.258C360.503 306.258 361.044 306.746 361.044 307.417C361.044 308.089 360.503 308.577 359.902 308.577ZM390.309 292.404C391.211 292.404 391.932 293.136 391.932 294.051C391.932 294.967 391.211 295.699 390.309 295.699C389.408 295.699 388.687 294.967 388.687 294.051C388.687 293.136 389.408 292.404 390.309 292.404ZM386.643 298.69C386.704 298.751 386.764 298.751 386.764 298.812C384.18 306.319 375.767 313.948 373.423 315.962L372.942 315.534C374.444 312.605 379.973 302.779 386.643 298.69ZM329.194 308.455L349.986 336.407L348.965 337.689L327.992 309.37L329.194 308.455ZM324.567 312.056L346.2 341.168L345.179 342.449L323.305 313.093L324.567 312.056ZM319.879 315.718L342.354 345.989L341.333 347.271L318.617 316.694L319.879 315.718ZM320.961 348.553C317.295 348.858 311.947 348.125 308.341 342.327C305.096 337.14 305.096 332.501 305.938 329.144L315.733 329.816L322.523 338.91L320.961 348.553ZM313.99 320.295L315.252 319.318L338.569 350.75L337.547 352.031L313.99 320.295ZM308.341 398.171L306.719 398.965L307.139 397.134L369.877 318.464L371.139 319.502L308.341 398.171ZM364.229 387.979L343.797 360.454L344.818 359.172L365.43 387.002L364.229 387.979ZM368.856 384.317L347.643 355.754L348.664 354.473L370.118 383.401L368.856 384.317ZM373.483 380.716L351.429 350.994L352.45 349.712L374.745 379.74L373.483 380.716ZM378.11 377.054L355.214 346.233L356.236 344.952L379.372 376.078L378.11 377.054Z" fill="#E7CA3C"/>
<path d="M368.255 283.741H329.494V288.074H368.255V283.741Z" fill="#E7CA3C"/>
<path d="M327.211 280.434V280.739H370.538V280.434L370.779 280.678L377.93 271.523L377.389 270.303C377.269 270.12 375.105 265.176 370.118 263.223C367.113 262.064 363.868 262.186 360.322 263.589C360.082 263.467 359.781 263.345 359.481 263.223C356.597 262.125 353.472 262.186 350.106 263.467V261.026H352.39V258.28H350.106V255.716H347.402V258.28H345.119V261.026H347.402V263.467C344.037 262.186 340.912 262.125 338.028 263.223C337.727 263.345 337.487 263.467 337.186 263.589C333.701 262.186 330.396 262.064 327.391 263.223C322.403 265.176 320.24 270.059 320.12 270.303L319.579 271.523L326.73 280.678L327.211 280.434ZM366.873 270.303C366.812 270.181 366.151 268.594 364.649 266.885C369.276 266.214 371.86 269.204 373.002 270.913L368.675 276.406H363.507L367.353 271.462L366.873 270.303ZM351.008 267.801C357.558 264.993 361.043 268.899 362.366 270.974L358.039 276.467H351.008V267.801ZM346.801 267.801V276.406H339.71L335.383 270.913C336.706 268.838 340.191 264.932 346.801 267.801ZM333.1 266.885C331.598 268.594 330.937 270.181 330.876 270.303L330.336 271.523L334.182 276.467H329.014L324.687 270.974C325.889 269.204 328.473 266.214 333.1 266.885Z" fill="#E7CA3C"/>
</svg>
